<svg width="398" height="306" viewBox="0 0 398 306" fill="none" xmlns="http://www.w3.org/2000/svg">
<path opacity="0.1" d="M182.375 270.202C273.72 270.202 347.77 264.448 347.77 257.351C347.77 250.254 273.72 244.501 182.375 244.501C91.0294 244.501 16.9793 250.254 16.9793 257.351C16.9793 264.448 91.0294 270.202 182.375 270.202Z" fill="#3CFFDC"/>
<g opacity="0.1">
<path opacity="0.1" d="M328.865 184.127C327.876 181.125 323.868 179.743 319.914 181.043C319.344 181.229 318.793 181.468 318.268 181.756C318.015 181.686 317.754 181.623 317.489 181.577C317.705 180.713 317.788 179.821 317.734 178.933C319.098 178.02 320.205 176.771 320.948 175.307C321.69 173.843 322.045 172.212 321.976 170.572C323.337 169.656 324.439 168.407 325.179 166.943C325.919 165.479 326.272 163.85 326.203 162.211C327.573 161.308 328.679 160.055 329.406 158.582C331.312 154.805 330.522 150.56 327.639 149.1C324.755 147.64 320.867 149.521 318.96 153.298C318.204 154.756 317.851 156.389 317.937 158.029C316.577 158.945 315.474 160.194 314.734 161.658C313.994 163.122 313.642 164.751 313.711 166.39C312.35 167.305 311.248 168.555 310.508 170.019C309.768 171.482 309.415 173.111 309.484 174.75C308.121 175.665 307.015 176.914 306.272 178.379C305.529 179.843 305.175 181.474 305.242 183.115C303.872 184.019 302.766 185.271 302.039 186.744C301.681 187.454 301.409 188.204 301.23 188.979C300.752 188.28 300.169 187.659 299.502 187.137C299.426 186.543 299.295 185.956 299.113 185.385C297.813 181.425 294.326 179.01 291.33 180C288.333 180.989 286.948 184.996 288.247 188.956C288.779 190.654 289.803 192.156 291.19 193.271C291.266 193.865 291.396 194.452 291.579 195.023C292.334 197.32 293.824 199.096 295.529 199.988C295.378 200.484 295.27 200.992 295.206 201.506C293.598 203.053 292.564 205.1 292.271 207.313C290.663 208.86 289.628 210.909 289.337 213.122C288.541 213.888 287.882 214.785 287.391 215.774C285.48 219.552 286.27 223.8 289.154 225.256C292.038 226.713 295.926 224.84 297.836 221.059C298.34 220.073 298.669 219.007 298.809 217.908C300.417 216.361 301.451 214.314 301.744 212.102C303.352 210.555 304.387 208.506 304.678 206.292C306.274 204.742 307.297 202.695 307.577 200.486C309.192 198.939 310.23 196.887 310.519 194.668C311.014 194.199 311.457 193.677 311.839 193.111C313.429 193.437 315.077 193.334 316.614 192.811C317.183 192.625 317.734 192.387 318.26 192.098C319.981 192.553 321.798 192.488 323.482 191.911C327.425 190.623 329.849 187.133 328.865 184.127Z" fill="#3F3D56"/>
<g opacity="0.1">
<path opacity="0.1" d="M321.887 172.289C321.478 172.691 321.03 173.05 320.548 173.36C320.609 174.472 320.463 175.585 320.116 176.643C320.422 176.219 320.696 175.773 320.933 175.307C321.416 174.361 321.738 173.341 321.887 172.289Z" fill="black"/>
<path opacity="0.1" d="M326.113 163.929C325.705 164.331 325.256 164.689 324.775 165C324.836 166.111 324.689 167.224 324.343 168.282C324.65 167.858 324.923 167.41 325.16 166.943C325.641 165.997 325.963 164.979 326.113 163.929Z" fill="black"/>
<path opacity="0.1" d="M316.528 160.817C316.492 160.244 316.515 159.669 316.594 159.1C315.839 159.845 315.21 160.71 314.734 161.658C314.499 162.126 314.301 162.612 314.142 163.111C314.787 162.203 315.596 161.425 316.528 160.817Z" fill="black"/>
<path opacity="0.1" d="M289.703 211.413C290.043 210.939 290.427 210.498 290.851 210.097C290.917 209.569 291.03 209.047 291.19 208.539C290.851 208.994 290.553 209.477 290.298 209.984C290.063 210.444 289.864 210.922 289.703 211.413Z" fill="black"/>
<path opacity="0.1" d="M292.637 205.611C292.977 205.137 293.362 204.696 293.785 204.295C293.849 203.78 293.957 203.272 294.108 202.776C293.785 203.218 293.499 203.685 293.252 204.174C293.011 204.637 292.806 205.117 292.637 205.611Z" fill="black"/>
<path opacity="0.1" d="M317.657 180.65C317.251 181.052 316.803 181.409 316.322 181.717C316.375 182.606 316.292 183.497 316.077 184.361C316.339 184.406 316.599 184.466 316.855 184.54C317.38 184.252 317.932 184.013 318.501 183.827C322.463 182.527 326.467 183.909 327.452 186.912C327.696 187.666 327.739 188.472 327.577 189.248C328.88 187.714 329.421 185.845 328.861 184.131C327.872 181.129 323.864 179.746 319.91 181.047C319.34 181.233 318.789 181.471 318.264 181.76C318.011 181.69 317.75 181.627 317.485 181.581C317.559 181.269 317.614 180.961 317.657 180.65Z" fill="black"/>
<path opacity="0.1" d="M288.255 214.33C287.917 214.784 287.619 215.268 287.364 215.774C287.128 216.244 286.927 216.731 286.765 217.231C287.112 216.754 287.503 216.311 287.932 215.907C287.992 215.372 288.1 214.845 288.255 214.33Z" fill="black"/>
<path opacity="0.1" d="M312.282 169.178C312.247 168.605 312.269 168.029 312.348 167.461C311.593 168.206 310.964 169.07 310.488 170.019C310.253 170.487 310.056 170.973 309.897 171.471C310.541 170.564 311.35 169.786 312.282 169.178Z" fill="black"/>
<path opacity="0.1" d="M306.176 203.274C306.099 203.854 305.969 204.425 305.787 204.98C306.092 204.555 306.363 204.107 306.6 203.64C306.856 203.14 307.068 202.619 307.235 202.083C306.916 202.509 306.562 202.908 306.176 203.274Z" fill="black"/>
<path opacity="0.1" d="M300.308 214.887C300.231 215.466 300.101 216.037 299.918 216.592C300.226 216.168 300.499 215.72 300.736 215.253C300.989 214.751 301.201 214.231 301.37 213.695C301.051 214.122 300.696 214.521 300.308 214.887Z" fill="black"/>
<path opacity="0.1" d="M303.242 209.077C303.166 209.656 303.035 210.227 302.853 210.782C303.163 210.365 303.441 209.925 303.686 209.466C303.941 208.966 304.153 208.445 304.32 207.908C303.994 208.327 303.634 208.718 303.242 209.077Z" fill="black"/>
<path opacity="0.1" d="M309.111 197.468C309.034 198.046 308.904 198.616 308.721 199.17C309.027 198.747 309.299 198.3 309.535 197.834C309.793 197.325 310.006 196.795 310.173 196.249C309.856 196.687 309.5 197.095 309.111 197.468Z" fill="black"/>
<path opacity="0.1" d="M289.897 182.784C292.902 181.799 296.389 184.209 297.681 188.169C297.863 188.742 297.993 189.33 298.07 189.926C298.737 190.447 299.32 191.068 299.798 191.767C299.977 190.991 300.249 190.24 300.607 189.528C300.744 189.264 300.891 189.01 301.043 188.75C300.602 188.138 300.078 187.59 299.487 187.122C299.41 186.527 299.28 185.941 299.097 185.369C297.798 181.409 294.311 178.995 291.314 179.984C289.602 180.545 288.419 182.091 287.959 184.045C288.486 183.465 289.154 183.03 289.897 182.784Z" fill="black"/>
<path opacity="0.1" d="M303.83 185.899C303.795 185.327 303.819 184.753 303.9 184.186C303.141 184.93 302.512 185.794 302.036 186.744C301.8 187.21 301.602 187.695 301.444 188.193C302.09 187.286 302.899 186.509 303.83 185.899Z" fill="black"/>
<path opacity="0.1" d="M308.056 177.535C308.022 176.963 308.045 176.389 308.126 175.821C307.367 176.563 306.737 177.426 306.262 178.376C306.027 178.844 305.829 179.329 305.67 179.828C306.314 178.92 307.124 178.142 308.056 177.535Z" fill="black"/>
<path opacity="0.1" d="M297.373 220.693C297.297 221.273 297.167 221.846 296.984 222.402C297.624 221.516 298.114 220.53 298.436 219.485C298.118 219.918 297.762 220.322 297.373 220.693Z" fill="black"/>
</g>
<path opacity="0.1" d="M334.632 145.49C336.004 144.588 337.109 143.335 337.835 141.861C339.746 138.084 338.956 133.835 336.072 132.375C333.188 130.915 329.301 132.796 327.39 136.577C326.633 138.038 326.281 139.676 326.37 141.32C325.01 142.235 323.907 143.485 323.167 144.948C322.427 146.412 322.075 148.041 322.144 149.68C320.771 150.582 319.665 151.835 318.941 153.31C318.707 153.772 318.51 154.252 318.353 154.747C319.369 153.274 320.843 152.179 322.545 151.631C322.738 152.231 323.049 152.786 323.459 153.265C323.869 153.744 324.369 154.137 324.932 154.421C325.494 154.705 326.107 154.874 326.736 154.919C327.364 154.965 327.995 154.885 328.592 154.684C329.167 156.377 329.167 158.213 328.592 159.906C328.896 159.487 329.167 159.044 329.402 158.582C330.157 157.124 330.509 155.491 330.421 153.851C331.783 152.937 332.887 151.688 333.627 150.224C334.367 148.76 334.719 147.13 334.648 145.49H334.632Z" fill="#3F3D56"/>
<path opacity="0.1" d="M381.083 91.8923C382.256 91.3446 383.39 90.7161 384.476 90.0115L371.895 80.8137L386.683 88.4344C389.675 86.0563 392.15 83.0922 393.957 79.7235C395.763 76.3548 396.864 72.6525 397.191 68.8433L372.058 69.1003L397.245 64.8869C396.985 61.074 395.948 57.3546 394.199 53.9572C392.449 50.5598 390.024 47.5561 387.072 45.1307C384.121 42.7053 380.705 40.9093 377.034 39.8531C373.363 38.7969 369.516 38.5028 365.727 38.9888C361.939 39.4748 358.289 40.7307 355.004 42.6793C351.718 44.6279 348.865 47.2282 346.62 50.3202C344.376 53.4123 342.786 56.931 341.95 60.6601C341.114 64.3892 341.048 68.2499 341.758 72.0053C339.931 72.8553 338.201 73.8997 336.597 75.1205L349.732 93.3954L333.963 77.3986C330.635 80.6685 328.174 84.7171 326.804 89.1781C325.433 93.6391 325.196 98.3717 326.113 102.948C321.35 105.172 317.308 108.693 314.449 113.108C311.59 117.522 310.031 122.653 309.948 127.912C309.865 133.172 311.263 138.349 313.981 142.851C316.699 147.353 320.629 151 325.32 153.374C330.011 155.748 335.275 156.753 340.51 156.275C345.746 155.797 350.741 153.855 354.925 150.671C359.11 147.487 362.315 143.189 364.174 138.269C366.033 133.348 366.471 128.004 365.439 122.846C371.139 120.191 375.781 115.695 378.619 110.081C381.456 104.466 382.324 98.06 381.083 91.8923Z" fill="#3CFFDC"/>
<path opacity="0.1" d="M328.592 84.7584C325.745 90.3701 324.875 96.779 326.121 102.948C321.357 105.172 317.315 108.693 314.457 113.108C311.598 117.522 310.038 122.653 309.956 127.912C309.873 133.172 311.271 138.349 313.989 142.851C316.707 147.353 320.636 151 325.328 153.374C330.019 155.748 335.283 156.753 340.518 156.275C345.753 155.797 350.749 153.855 354.933 150.671C359.118 147.487 362.322 143.189 364.182 138.269C366.041 133.348 366.479 128.004 365.446 122.846C370.945 120.292 330.001 81.9507 328.592 84.7584Z" fill="black"/>
<path opacity="0.1" d="M360.169 44.1627C362.467 44.1627 364.329 42.2989 364.329 39.9999C364.329 37.7009 362.467 35.8371 360.169 35.8371C357.872 35.8371 356.009 37.7009 356.009 39.9999C356.009 42.2989 357.872 44.1627 360.169 44.1627Z" fill="#3CFFDC"/>
<path opacity="0.1" d="M384.469 46.834C386.766 46.834 388.629 44.9703 388.629 42.6712C388.629 40.3722 386.766 38.5085 384.469 38.5085C382.171 38.5085 380.309 40.3722 380.309 42.6712C380.309 44.9703 382.171 46.834 384.469 46.834Z" fill="#3CFFDC"/>
<path opacity="0.1" d="M393.84 84.2404C396.137 84.2404 398 82.3767 398 80.0777C398 77.7786 396.137 75.9149 393.84 75.9149C391.542 75.9149 389.68 77.7786 389.68 80.0777C389.68 82.3767 391.542 84.2404 393.84 84.2404Z" fill="#3CFFDC"/>
<path opacity="0.1" d="M381.192 102.92C383.49 102.92 385.352 101.057 385.352 98.7575C385.352 96.4585 383.49 94.5948 381.192 94.5948C378.894 94.5948 377.032 96.4585 377.032 98.7575C377.032 101.057 378.894 102.92 381.192 102.92Z" fill="#3CFFDC"/>
<path opacity="0.1" d="M363.913 141.717C366.211 141.717 368.073 139.853 368.073 137.554C368.073 135.255 366.211 133.391 363.913 133.391C361.615 133.391 359.753 135.255 359.753 137.554C359.753 139.853 361.615 141.717 363.913 141.717Z" fill="#3CFFDC"/>
<path opacity="0.1" d="M363.913 141.717C366.211 141.717 368.073 139.853 368.073 137.554C368.073 135.255 366.211 133.391 363.913 133.391C361.615 133.391 359.753 135.255 359.753 137.554C359.753 139.853 361.615 141.717 363.913 141.717Z" fill="black"/>
<path opacity="0.1" d="M325.494 97.7762C327.792 97.7762 329.655 95.9125 329.655 93.6135C329.655 91.3144 327.792 89.4507 325.494 89.4507C323.197 89.4507 321.334 91.3144 321.334 93.6135C321.334 95.9125 323.197 97.7762 325.494 97.7762Z" fill="#3CFFDC"/>
<path opacity="0.1" d="M325.494 97.7762C327.792 97.7762 329.655 95.9125 329.655 93.6135C329.655 91.3144 327.792 89.4507 325.494 89.4507C323.197 89.4507 321.334 91.3144 321.334 93.6135C321.334 95.9125 323.197 97.7762 325.494 97.7762Z" fill="black"/>
<path opacity="0.1" d="M321.058 162.083C318.291 160.685 317.454 156.725 319.069 153.072C318.984 153.22 318.902 153.372 318.824 153.532C316.913 157.309 317.703 161.553 320.587 163.014C323.471 164.474 327.359 162.593 329.266 158.816C329.347 158.66 329.417 158.5 329.487 158.345C327.507 161.814 323.821 163.485 321.058 162.083Z" fill="black"/>
<path opacity="0.1" d="M316.948 170.214C314.185 168.816 313.345 164.855 314.964 161.199C314.878 161.351 314.792 161.503 314.715 161.658C312.804 165.436 313.594 169.684 316.478 171.141C319.361 172.597 323.249 170.724 325.16 166.943C325.238 166.787 325.312 166.631 325.382 166.472C323.397 169.941 319.715 171.612 316.948 170.214Z" fill="black"/>
<path opacity="0.1" d="M312.839 178.341C310.076 176.943 309.235 172.982 310.854 169.33C310.768 169.478 310.683 169.63 310.605 169.789C308.694 173.567 309.488 177.811 312.372 179.271C315.256 180.732 319.139 178.851 321.05 175.074C321.128 174.918 321.202 174.758 321.272 174.602C319.291 178.072 315.606 179.743 312.839 178.341Z" fill="black"/>
<path opacity="0.1" d="M308.745 186.491C305.978 185.093 305.141 181.133 306.756 177.48C306.671 177.628 306.589 177.78 306.507 177.936C304.6 181.713 305.39 185.961 308.274 187.422C311.158 188.882 315.045 187.001 316.952 183.22C317.034 183.064 317.104 182.908 317.174 182.749C315.182 186.199 311.496 187.869 308.745 186.491Z" fill="black"/>
<path opacity="0.1" d="M304.623 194.598C301.857 193.2 301.02 189.24 302.635 185.588C302.549 185.735 302.468 185.887 302.39 186.047C300.479 189.824 301.269 194.069 304.153 195.529C307.036 196.989 310.924 195.109 312.835 191.331C312.913 191.176 312.987 191.016 313.057 190.86C311.08 194.33 307.387 196 304.623 194.598Z" fill="black"/>
<path opacity="0.1" d="M300.514 202.729C297.751 201.331 296.91 197.371 298.529 193.718C298.444 193.866 298.358 194.018 298.28 194.174C296.369 197.951 297.159 202.2 300.047 203.66C302.935 205.12 306.799 203.235 308.745 199.458C308.823 199.302 308.897 199.147 308.967 198.987C306.962 202.457 303.296 204.127 300.514 202.729Z" fill="black"/>
<path opacity="0.1" d="M296.404 210.856C293.641 209.458 292.801 205.498 294.42 201.845C294.334 201.997 294.252 202.145 294.171 202.305C292.264 206.082 293.054 210.327 295.937 211.787C298.821 213.247 302.709 211.366 304.616 207.589C304.697 207.433 304.768 207.274 304.838 207.118C302.857 210.587 299.171 212.258 296.404 210.856Z" fill="black"/>
<path opacity="0.1" d="M292.299 218.987C289.532 217.589 288.695 213.629 290.31 209.976C290.224 210.124 290.143 210.276 290.065 210.432C288.154 214.209 288.944 218.457 291.828 219.918C294.711 221.378 298.599 219.497 300.51 215.716C300.588 215.56 300.658 215.404 300.728 215.245C298.747 218.714 295.062 220.369 292.299 218.987Z" fill="black"/>
<path opacity="0.1" d="M289.598 224.33C286.835 222.928 285.994 218.971 287.613 215.315C287.527 215.467 287.442 215.619 287.364 215.774C285.453 219.552 286.243 223.8 289.127 225.256C292.011 226.713 295.898 224.84 297.809 221.059C297.887 220.903 297.961 220.747 298.031 220.587C296.046 224.057 292.361 225.728 289.598 224.33Z" fill="black"/>
<path opacity="0.1" d="M363.847 188.15C364.275 186.92 364.537 185.637 364.625 184.338C364.911 184.337 365.194 184.277 365.455 184.162C365.717 184.047 365.952 183.88 366.146 183.67C366.34 183.46 366.489 183.212 366.583 182.942C366.677 182.672 366.714 182.385 366.693 182.1C366.671 181.815 366.591 181.537 366.457 181.284C366.323 181.032 366.138 180.809 365.915 180.631C365.691 180.453 365.433 180.323 365.157 180.249C364.881 180.175 364.593 180.159 364.31 180.202C363.847 178.094 362.921 176.116 361.599 174.411C360.277 172.707 358.592 171.318 356.667 170.346C356.915 169.854 356.958 169.282 356.786 168.758C356.614 168.234 356.241 167.799 355.748 167.55C355.256 167.301 354.685 167.258 354.161 167.431C353.637 167.603 353.203 167.977 352.954 168.469C352.864 168.644 352.801 168.832 352.767 169.026C350.484 168.6 348.132 168.726 345.907 169.394C343.682 170.061 341.648 171.25 339.975 172.862C338.712 172.657 337.427 172.619 336.154 172.749L334.469 180.424L334.367 173.025C332.433 173.449 330.606 174.264 328.997 175.419C327.388 176.574 326.032 178.045 325.01 179.742C323.989 181.439 323.324 183.327 323.057 185.29C322.789 187.253 322.924 189.25 323.454 191.159C323.984 193.068 324.898 194.849 326.139 196.392C327.38 197.936 328.922 199.21 330.672 200.137C332.422 201.064 334.343 201.624 336.316 201.784C338.29 201.943 340.275 201.697 342.151 201.063C342.351 201.425 342.657 201.718 343.026 201.904C343.408 202.097 343.839 202.169 344.262 202.108C344.685 202.048 345.079 201.858 345.391 201.565C345.702 201.272 345.916 200.89 346.003 200.471C346.089 200.053 346.045 199.617 345.875 199.225C346.539 198.768 347.164 198.258 347.743 197.698C350.781 198.192 353.898 197.711 356.646 196.324C359.394 194.937 361.633 192.715 363.041 189.976L355.2 188.656L363.847 188.15Z" fill="#3CFFDC"/>
<g opacity="0.1">
<path opacity="0.1" d="M351.732 191.876C348.837 188.052 347.062 183.524 345.019 179.178C344.199 177.394 343.28 175.657 342.268 173.975L340.734 172.188C340.477 172.406 340.221 172.632 339.956 172.869C338.692 172.665 337.408 172.627 336.134 172.757L334.449 180.432L334.348 173.033C332.414 173.457 330.587 174.272 328.978 175.426C327.369 176.581 326.012 178.052 324.991 179.75C323.969 181.447 323.305 183.335 323.037 185.298C322.77 187.261 322.905 189.258 323.435 191.167C323.965 193.076 324.878 194.856 326.119 196.4C327.36 197.944 328.903 199.218 330.653 200.145C332.403 201.072 334.323 201.632 336.297 201.791C338.27 201.95 340.256 201.705 342.131 201.07C342.332 201.433 342.637 201.726 343.007 201.911C343.388 202.105 343.82 202.177 344.243 202.116C344.666 202.055 345.06 201.866 345.371 201.573C345.683 201.28 345.896 200.898 345.983 200.479C346.07 200.06 346.025 199.625 345.856 199.232C346.52 198.776 347.144 198.266 347.724 197.706C350.698 198.188 353.749 197.736 356.457 196.413C354.649 195.164 353.054 193.632 351.732 191.876Z" fill="black"/>
</g>
<path opacity="0.1" d="M300.459 175.443C300.62 175.126 300.696 174.773 300.681 174.417C300.666 174.062 300.56 173.716 300.374 173.413C300.187 173.111 299.926 172.861 299.615 172.688C299.305 172.515 298.955 172.425 298.599 172.426C298.009 169.296 296.41 166.447 294.046 164.314C294.427 162.827 294.571 161.29 294.474 159.758L286.827 158.454L294.252 157.986C294.119 157.289 293.935 156.602 293.703 155.93C293.993 155.731 294.228 155.464 294.388 155.151C294.576 154.779 294.647 154.359 294.594 153.946C294.54 153.533 294.364 153.145 294.087 152.833C293.811 152.521 293.448 152.299 293.044 152.196C292.641 152.093 292.216 152.113 291.824 152.254C289.857 149.474 286.979 147.47 283.69 146.592C280.401 145.714 276.908 146.017 273.819 147.448C270.73 148.879 268.239 151.348 266.78 154.426C265.321 157.503 264.985 160.995 265.831 164.295C265.381 164.485 265.014 164.83 264.796 165.268C264.605 165.645 264.534 166.072 264.591 166.491C264.649 166.909 264.832 167.301 265.118 167.612C265.403 167.924 265.776 168.142 266.188 168.235C266.6 168.329 267.031 168.295 267.423 168.138C268.17 169.393 269.1 170.528 270.182 171.507C269.394 174.582 269.632 177.831 270.859 180.759L281.114 178.095L271.969 182.908C273.586 185.48 275.965 187.481 278.775 188.632C281.584 189.783 284.683 190.027 287.638 189.329C290.593 188.632 293.256 187.027 295.255 184.741C297.254 182.454 298.488 179.6 298.786 176.577C299.138 176.546 299.477 176.426 299.77 176.228C300.063 176.029 300.3 175.759 300.459 175.443Z" fill="#3CFFDC"/>
<path opacity="0.1" d="M300.459 175.443C300.62 175.126 300.696 174.773 300.681 174.417C300.666 174.062 300.56 173.716 300.374 173.413C300.187 173.111 299.926 172.861 299.615 172.688C299.305 172.515 298.955 172.425 298.599 172.426C298.009 169.296 296.41 166.447 294.046 164.314C294.108 164.069 294.163 163.827 294.209 163.582C293.938 163.779 293.686 164.002 293.458 164.248C292.077 165.763 291.369 167.799 290.003 169.33C288.391 171.137 285.979 172.079 283.57 172.332C281.161 172.585 278.736 172.215 276.358 171.752C274.389 171.362 272.393 170.911 270.396 171.102C270.202 171.102 270.007 171.144 269.828 171.176C269.945 171.288 270.062 171.401 270.182 171.51C269.394 174.586 269.632 177.835 270.859 180.763L281.114 178.095L271.969 182.908C273.586 185.48 275.965 187.481 278.775 188.632C281.584 189.783 284.683 190.027 287.638 189.329C290.593 188.632 293.256 187.027 295.255 184.741C297.254 182.454 298.488 179.6 298.786 176.577C299.138 176.546 299.477 176.426 299.77 176.228C300.063 176.029 300.3 175.759 300.459 175.443Z" fill="black"/>
</g>
<g opacity="0.1">
<path opacity="0.1" d="M34.8264 199.08C35.3246 197.566 37.3444 196.869 39.3369 197.523C39.6235 197.617 39.9009 197.737 40.1658 197.881C40.2942 197.846 40.4265 197.815 40.555 197.792C40.4456 197.357 40.4036 196.907 40.4304 196.46C39.7464 195.997 39.1919 195.367 38.8194 194.63C38.4468 193.892 38.2687 193.072 38.3017 192.246C37.6117 191.792 37.0555 191.162 36.6906 190.42C36.3102 189.686 36.1316 188.863 36.173 188.037C35.4835 187.58 34.9275 186.949 34.5618 186.207C33.6045 184.306 33.9936 182.169 35.453 181.429C36.9124 180.689 38.866 181.643 39.8272 183.543C40.2069 184.279 40.3842 185.103 40.3409 185.93C41.0267 186.39 41.5828 187.019 41.9556 187.756C42.3284 188.494 42.5054 189.314 42.4697 190.14C43.1553 190.601 43.711 191.231 44.0838 191.968C44.4565 192.706 44.6337 193.527 44.5984 194.353C45.2842 194.813 45.8403 195.442 46.213 196.179C46.5858 196.916 46.7629 197.737 46.7271 198.563C47.4181 199.019 47.9754 199.65 48.3422 200.393C48.5172 200.752 48.6478 201.131 48.7313 201.522C48.9711 201.169 49.2638 200.855 49.5992 200.591C49.6392 200.291 49.7069 199.995 49.8016 199.707C50.4592 197.714 52.2144 196.499 53.7282 196.982C55.2421 197.464 55.9348 199.501 55.2849 201.495C55.0163 202.351 54.5004 203.108 53.8022 203.672C53.7618 203.971 53.694 204.265 53.5998 204.552C53.2804 205.609 52.5688 206.503 51.6112 207.052C51.6863 207.306 51.7409 207.567 51.7746 207.83C52.1764 208.216 52.5094 208.668 52.7592 209.166C53.0138 209.663 53.1798 210.201 53.2496 210.755C53.6529 211.14 53.9872 211.592 54.238 212.091C54.4922 212.588 54.6581 213.125 54.7284 213.679C55.1326 214.065 55.4671 214.519 55.7169 215.019C56.6781 216.919 56.2812 219.061 54.8296 219.793C53.378 220.525 51.4166 219.583 50.4554 217.679C50.2019 217.181 50.036 216.644 49.965 216.09C49.1542 215.311 48.6326 214.28 48.4862 213.165C47.6754 212.387 47.1538 211.356 47.0073 210.241C46.6043 209.855 46.27 209.403 46.0189 208.905C45.7672 208.407 45.6014 207.87 45.5285 207.316C45.1267 206.931 44.7937 206.479 44.5439 205.981C44.2893 205.484 44.1234 204.946 44.0536 204.392C43.803 204.158 43.5798 203.897 43.3881 203.613C42.5874 203.777 41.7576 203.726 40.9831 203.465C40.6954 203.369 40.4167 203.248 40.1502 203.103C39.2847 203.333 38.3704 203.301 37.5234 203.01C35.5503 202.351 34.3322 200.595 34.8264 199.08Z" fill="#3F3D56"/>
<g opacity="0.1">
<path opacity="0.1" d="M38.3406 193.111C38.547 193.314 38.7739 193.496 39.0178 193.652C38.9848 194.211 39.0588 194.772 39.2357 195.303C39.0793 195.091 38.9413 194.865 38.8232 194.63C38.5798 194.153 38.4167 193.64 38.3406 193.111Z" fill="black"/>
<path opacity="0.1" d="M36.2119 188.905C36.4193 189.106 36.6461 189.286 36.889 189.443C36.8563 190.003 36.9303 190.565 37.107 191.098C36.6356 190.45 36.3284 189.698 36.2119 188.905Z" fill="black"/>
<path opacity="0.1" d="M41.0492 187.336C41.0677 187.047 41.0573 186.758 41.0181 186.472C41.3986 186.847 41.7153 187.283 41.956 187.76C42.0735 187.996 42.1724 188.241 42.2518 188.493C41.9274 188.035 41.5194 187.642 41.0492 187.336Z" fill="black"/>
<path opacity="0.1" d="M54.5533 212.827C54.3831 212.588 54.1902 212.366 53.9773 212.165C53.9418 211.901 53.8845 211.64 53.8061 211.386C53.975 211.614 54.1247 211.857 54.2536 212.11C54.3717 212.341 54.4719 212.58 54.5533 212.827Z" fill="black"/>
<path opacity="0.1" d="M53.0628 209.902C52.8926 209.663 52.6997 209.442 52.4868 209.24C52.455 208.976 52.4003 208.716 52.3234 208.461C52.644 208.896 52.8911 209.38 53.055 209.894L53.0628 209.902Z" fill="black"/>
<path opacity="0.1" d="M40.4733 197.332C40.6776 197.534 40.9033 197.713 41.1465 197.866C41.1174 198.313 41.1595 198.763 41.271 199.197C41.1399 199.22 41.01 199.25 40.8819 199.287C40.6153 199.143 40.3366 199.023 40.0491 198.929C38.0565 198.274 36.0368 198.971 35.5425 200.486C35.4187 200.863 35.3959 201.266 35.4764 201.654C35.1562 201.317 34.9285 200.903 34.8153 200.452C34.7021 200.001 34.7073 199.529 34.8304 199.081C35.3285 197.566 37.3483 196.869 39.3408 197.523C39.6274 197.617 39.9048 197.737 40.1697 197.881C40.2981 197.846 40.4305 197.815 40.5589 197.792C40.5215 197.64 40.4929 197.487 40.4733 197.332Z" fill="black"/>
<path opacity="0.1" d="M55.2849 214.295C55.4547 214.524 55.6044 214.768 55.7325 215.023C55.8513 215.259 55.9515 215.503 56.0321 215.755C55.862 215.515 55.6691 215.292 55.4561 215.089C55.4215 214.82 55.3642 214.554 55.2849 214.295Z" fill="black"/>
<path opacity="0.1" d="M43.178 191.553C43.1965 191.265 43.1861 190.975 43.1468 190.689C43.5282 191.064 43.8451 191.499 44.0847 191.978C44.2022 192.212 44.3011 192.456 44.3805 192.706C44.0561 192.249 43.648 191.858 43.178 191.553Z" fill="black"/>
<path opacity="0.1" d="M46.2563 208.726C46.2927 209.017 46.3565 209.304 46.447 209.583C46.1227 209.138 45.8754 208.642 45.7153 208.115C45.877 208.334 46.0581 208.539 46.2563 208.726Z" fill="black"/>
<path opacity="0.1" d="M49.2101 214.575C49.2493 214.866 49.3144 215.152 49.4046 215.432C49.2483 215.219 49.1103 214.994 48.9921 214.758C48.8641 214.508 48.7574 214.247 48.673 213.979C48.836 214.192 49.0156 214.391 49.2101 214.575Z" fill="black"/>
<path opacity="0.1" d="M47.7351 211.651C47.7715 211.941 47.8354 212.228 47.9258 212.507C47.7708 212.294 47.6329 212.069 47.5133 211.834C47.3848 211.584 47.278 211.323 47.1942 211.055C47.3566 211.269 47.5376 211.468 47.7351 211.651Z" fill="black"/>
<path opacity="0.1" d="M44.7774 205.798C44.8134 206.09 44.8773 206.378 44.9681 206.658C44.8206 206.445 44.6904 206.219 44.579 205.985C44.4485 205.735 44.3404 205.475 44.256 205.206C44.4114 205.419 44.586 205.617 44.7774 205.798Z" fill="black"/>
<path opacity="0.1" d="M54.456 198.403C52.9421 197.904 51.187 199.119 50.5332 201.129C50.4386 201.417 50.3708 201.712 50.3308 202.013C49.9942 202.275 49.7002 202.587 49.4591 202.94C49.3688 202.548 49.2316 202.169 49.0505 201.81C48.9843 201.678 48.9104 201.549 48.8326 201.421C49.0534 201.114 49.3153 200.839 49.6109 200.603C49.6509 200.303 49.7186 200.007 49.8132 199.719C50.4709 197.725 52.2261 196.51 53.7399 196.993C54.174 197.16 54.5577 197.436 54.8536 197.795C55.1496 198.154 55.3477 198.583 55.4289 199.042C55.1644 198.749 54.8295 198.529 54.456 198.403Z" fill="black"/>
<path opacity="0.1" d="M47.4354 199.972C47.4539 199.684 47.4435 199.394 47.4043 199.108C47.7857 199.483 48.1025 199.918 48.3422 200.397C48.4597 200.633 48.5586 200.877 48.638 201.129C48.3147 200.67 47.9064 200.277 47.4354 199.972Z" fill="black"/>
<path opacity="0.1" d="M45.3067 195.759C45.3252 195.47 45.3147 195.181 45.2756 194.894C45.6551 195.271 45.9718 195.706 46.2135 196.183C46.3309 196.419 46.4298 196.664 46.5092 196.915C46.1849 196.457 45.7769 196.065 45.3067 195.759Z" fill="black"/>
<path opacity="0.1" d="M50.6889 217.499C50.7262 217.792 50.7914 218.08 50.8834 218.36C50.7279 218.146 50.59 217.919 50.4709 217.682C50.3429 217.432 50.2362 217.172 50.1518 216.904C50.3148 217.116 50.4944 217.315 50.6889 217.499Z" fill="black"/>
</g>
<path opacity="0.1" d="M31.9194 179.614C31.2294 179.16 30.6732 178.529 30.3083 177.788C29.347 175.884 29.744 173.746 31.1956 173.01C32.6472 172.274 34.6086 173.22 35.5698 175.124C35.95 175.859 36.1273 176.681 36.0835 177.507C36.7691 177.969 37.3249 178.598 37.6976 179.336C38.0703 180.074 38.2475 180.895 38.2122 181.721C38.9026 182.176 39.46 182.806 39.8273 183.547C39.9441 183.781 40.0429 184.023 40.123 184.271C39.6075 183.535 38.8653 182.988 38.0099 182.714C37.9146 183.018 37.7596 183.3 37.5541 183.544C37.3486 183.787 37.0966 183.987 36.8129 184.132C36.5292 184.277 36.2195 184.364 35.9018 184.388C35.5841 184.412 35.2649 184.372 34.9627 184.271C34.6742 185.124 34.6742 186.047 34.9627 186.9C34.8165 186.688 34.6864 186.465 34.5735 186.234C34.1932 185.499 34.0146 184.677 34.0559 183.851C33.3712 183.389 32.816 182.759 32.4434 182.021C32.0707 181.284 31.893 180.463 31.9272 179.637L31.9194 179.614Z" fill="#3F3D56"/>
<path opacity="0.1" d="M8.52274 152.613C7.93242 152.336 7.36161 152.02 6.81431 151.666L13.1499 147.032L5.70129 150.868C4.19527 149.67 2.94944 148.177 2.04006 146.48C1.13068 144.783 0.576871 142.919 0.412526 141L13.076 141.133L0.385284 139.007C0.494556 137.069 1.00134 135.176 1.87406 133.443C2.74678 131.71 3.96675 130.176 5.45794 128.936C6.94913 127.695 8.6796 126.776 10.5415 126.234C12.4035 125.692 14.357 125.539 16.2804 125.786C18.2037 126.033 20.0558 126.673 21.721 127.667C23.3863 128.661 24.8292 129.987 25.9597 131.564C27.0903 133.14 27.8843 134.933 28.2923 136.83C28.7003 138.726 28.7136 140.687 28.3313 142.589C29.2505 143.015 30.122 143.537 30.9309 144.147L24.3151 153.352L32.258 145.299C33.934 146.947 35.1733 148.986 35.8637 151.233C36.554 153.481 36.6737 155.864 36.2119 158.169C38.6147 159.289 40.654 161.063 42.0966 163.288C43.5393 165.513 44.327 168.099 44.3698 170.751C44.4126 173.403 43.7087 176.014 42.3386 178.284C40.9685 180.555 38.9875 182.393 36.6221 183.59C34.2568 184.787 31.6025 185.294 28.9629 185.052C26.3233 184.811 23.8049 183.831 21.6957 182.225C19.5865 180.618 17.9716 178.451 17.0357 175.969C16.0998 173.488 15.8806 170.793 16.4034 168.193C13.5356 166.855 11.1998 164.593 9.77073 161.768C8.34168 158.944 7.90219 155.721 8.52274 152.616V152.613Z" fill="#3CFFDC"/>
<path opacity="0.1" d="M34.9666 149.022C36.4018 151.849 36.8407 155.078 36.2119 158.185C38.6146 159.305 40.654 161.079 42.0966 163.304C43.5393 165.529 44.327 168.115 44.3698 170.767C44.4126 173.419 43.7087 176.029 42.3386 178.3C40.9685 180.57 38.9875 182.409 36.6221 183.606C34.2568 184.803 31.6025 185.309 28.9629 185.068C26.3233 184.826 23.8049 183.847 21.6957 182.24C19.5865 180.634 17.9716 178.466 17.0357 175.985C16.0998 173.503 15.8806 170.808 16.4033 168.208C13.6286 166.919 34.2544 147.609 34.9666 149.022Z" fill="black"/>
<path opacity="0.1" d="M19.0574 128.571C20.2159 128.571 21.155 127.631 21.155 126.472C21.155 125.312 20.2159 124.373 19.0574 124.373C17.899 124.373 16.9598 125.312 16.9598 126.472C16.9598 127.631 17.899 128.571 19.0574 128.571Z" fill="#3CFFDC"/>
<path opacity="0.1" d="M6.81431 129.918C7.97278 129.918 8.91191 128.978 8.91191 127.819C8.91191 126.66 7.97278 125.72 6.81431 125.72C5.65583 125.72 4.71671 126.66 4.71671 127.819C4.71671 128.978 5.65583 129.918 6.81431 129.918Z" fill="#3CFFDC"/>
<path opacity="0.1" d="M2.0976 148.761C3.25608 148.761 4.19521 147.822 4.19521 146.662C4.19521 145.503 3.25608 144.563 2.0976 144.563C0.939129 144.563 0 145.503 0 146.662C0 147.822 0.939129 148.761 2.0976 148.761Z" fill="#3CFFDC"/>
<path opacity="0.1" d="M8.46824 158.173C9.62672 158.173 10.5658 157.234 10.5658 156.074C10.5658 154.915 9.62672 153.975 8.46824 153.975C7.30977 153.975 6.37064 154.915 6.37064 156.074C6.37064 157.234 7.30977 158.173 8.46824 158.173Z" fill="#3CFFDC"/>
<path opacity="0.1" d="M17.17 177.718C18.3285 177.718 19.2676 176.778 19.2676 175.619C19.2676 174.46 18.3285 173.52 17.17 173.52C16.0115 173.52 15.0724 174.46 15.0724 175.619C15.0724 176.778 16.0115 177.718 17.17 177.718Z" fill="#3CFFDC"/>
<path opacity="0.1" d="M17.17 177.718C18.3285 177.718 19.2676 176.778 19.2676 175.619C19.2676 174.46 18.3285 173.52 17.17 173.52C16.0115 173.52 15.0724 174.46 15.0724 175.619C15.0724 176.778 16.0115 177.718 17.17 177.718Z" fill="black"/>
<path opacity="0.1" d="M36.5232 155.58C37.6817 155.58 38.6208 154.64 38.6208 153.481C38.6208 152.322 37.6817 151.382 36.5232 151.382C35.3647 151.382 34.4256 152.322 34.4256 153.481C34.4256 154.64 35.3647 155.58 36.5232 155.58Z" fill="#3CFFDC"/>
<path opacity="0.1" d="M36.5232 155.58C37.6817 155.58 38.6208 154.64 38.6208 153.481C38.6208 152.322 37.6817 151.382 36.5232 151.382C35.3647 151.382 34.4256 152.322 34.4256 153.481C34.4256 154.64 35.3647 155.58 36.5232 155.58Z" fill="black"/>
<path opacity="0.1" d="M38.7609 187.975C40.1541 187.27 40.5744 185.276 39.7611 183.434C39.8039 183.512 39.8467 183.586 39.8856 183.664C40.8468 185.568 40.4499 187.706 38.9944 188.442C37.5389 189.178 35.5853 188.232 34.6241 186.327C34.5852 186.25 34.5463 186.172 34.5112 186.09C35.5114 187.838 37.3677 188.679 38.7609 187.975Z" fill="black"/>
<path opacity="0.1" d="M40.8274 192.071C42.2206 191.366 42.6448 189.369 41.8315 187.531C41.8743 187.605 41.9171 187.683 41.956 187.76C42.9172 189.665 42.5203 191.802 41.0648 192.538C39.6093 193.274 37.6557 192.328 36.6945 190.424C36.6517 190.346 36.6166 190.264 36.5816 190.186C37.5818 191.943 39.442 192.776 40.8274 192.071Z" fill="black"/>
<path opacity="0.1" d="M42.8978 196.164C44.291 195.459 44.7152 193.465 43.8979 191.623C43.9446 191.701 43.9835 191.775 44.0263 191.857C44.9876 193.757 44.5867 195.899 43.1351 196.631C41.6836 197.363 39.726 196.421 38.7648 194.517C38.722 194.439 38.687 194.361 38.6519 194.279C39.6482 196.028 41.5045 196.869 42.8978 196.164Z" fill="black"/>
<path opacity="0.1" d="M44.9681 200.26C46.3613 199.556 46.7855 197.562 45.9683 195.72C46.0111 195.794 46.0539 195.872 46.0928 195.95C47.0579 197.854 46.6571 199.992 45.2055 200.728C43.7539 201.464 41.7925 200.517 40.8313 198.613C40.7923 198.535 40.7573 198.454 40.7223 198.376C41.7186 200.12 43.5749 200.965 44.9681 200.26Z" fill="black"/>
<path opacity="0.1" d="M47.0385 204.353C48.4317 203.648 48.852 201.654 48.0386 199.816C48.0814 199.89 48.1242 199.968 48.1632 200.046C49.1244 201.95 48.7275 204.088 47.2759 204.824C45.8243 205.56 43.8629 204.61 42.9016 202.71C42.8627 202.628 42.8277 202.55 42.7888 202.472C43.7889 204.217 45.6453 205.058 47.0385 204.353Z" fill="black"/>
<path opacity="0.1" d="M49.1088 208.45C50.502 207.745 50.9223 205.751 50.109 203.909C50.1518 203.987 50.1946 204.061 50.2335 204.139C51.1947 206.043 50.7978 208.181 49.3462 208.917C47.8946 209.653 45.9332 208.707 44.972 206.802C44.9331 206.725 44.8942 206.647 44.8591 206.565C45.8593 208.298 47.7156 209.154 49.1088 208.45Z" fill="black"/>
<path opacity="0.1" d="M51.1792 212.546C52.5685 211.841 52.9927 209.844 52.1793 208.006C52.2222 208.08 52.265 208.158 52.3039 208.235C53.2651 210.14 52.8682 212.277 51.4127 213.013C49.9572 213.749 48.0036 212.799 47.0424 210.899C47.0034 210.817 46.9645 210.739 46.9295 210.661C47.9297 212.406 49.786 213.251 51.1792 212.546Z" fill="black"/>
<path opacity="0.1" d="M53.2457 216.639C54.6389 215.934 55.0631 213.94 54.2458 212.098C54.2925 212.176 54.3314 212.25 54.3743 212.332C55.3355 214.232 54.9347 216.374 53.4831 217.106C52.0315 217.838 50.074 216.896 49.1127 214.992C49.0699 214.914 49.0349 214.836 48.9999 214.754C50 216.503 51.8525 217.344 53.2457 216.639Z" fill="black"/>
<path opacity="0.1" d="M54.6194 219.33C56.0127 218.625 56.433 216.631 55.6196 214.789C55.6624 214.867 55.7052 214.941 55.7441 215.023C56.7054 216.923 56.3084 219.065 54.8568 219.797C53.4052 220.529 51.4438 219.587 50.4826 217.682C50.4437 217.605 50.4048 217.527 50.3698 217.445C51.3582 219.201 53.2146 220.035 54.6194 219.33Z" fill="black"/>
<path opacity="0.1" d="M17.205 201.105C16.9889 200.486 16.858 199.84 16.8159 199.186C16.672 199.185 16.5297 199.155 16.398 199.097C16.2663 199.039 16.1479 198.954 16.0503 198.849C15.9527 198.743 15.8779 198.618 15.8307 198.482C15.7835 198.346 15.7648 198.202 15.7758 198.058C15.7868 197.914 15.8272 197.775 15.8946 197.648C15.962 197.52 16.0549 197.408 16.1675 197.319C16.2801 197.229 16.4099 197.163 16.5489 197.126C16.6879 197.089 16.8331 197.081 16.9754 197.102C17.2089 196.041 17.6754 195.045 18.3411 194.186C19.0068 193.327 19.855 192.628 20.8243 192.137C20.6989 191.889 20.6772 191.601 20.7641 191.337C20.8509 191.072 21.0392 190.853 21.2874 190.728C21.5356 190.602 21.8235 190.581 22.0877 190.667C22.3519 190.754 22.5708 190.943 22.6962 191.191C22.7417 191.279 22.7732 191.374 22.7896 191.471C23.9411 191.26 25.1265 191.326 26.2473 191.665C27.3681 192.003 28.392 192.605 29.2342 193.418C29.8774 193.313 30.5319 193.295 31.18 193.364L32.0284 197.227L32.0478 193.5C33.0127 193.723 33.9225 194.14 34.7223 194.724C35.522 195.309 36.1952 196.049 36.7013 196.901C37.2074 197.753 37.5359 198.698 37.6669 199.681C37.7979 200.663 37.7288 201.662 37.4638 202.616C37.1987 203.571 36.7432 204.463 36.1247 205.236C35.5061 206.01 34.7374 206.651 33.8648 207.12C32.9921 207.588 32.0337 207.875 31.0473 207.963C30.0608 208.051 29.0668 207.939 28.125 207.632C28.0226 207.813 27.8698 207.96 27.6853 208.056C27.4929 208.153 27.2754 208.189 27.0621 208.158C26.8489 208.128 26.6502 208.032 26.493 207.885C26.3359 207.737 26.2278 207.545 26.1835 207.334C26.1392 207.123 26.1608 206.903 26.2454 206.705C25.9117 206.472 25.598 206.211 25.3075 205.926C23.7767 206.174 22.2067 205.931 20.8225 205.232C19.4383 204.532 18.311 203.412 17.602 202.032L21.552 201.366L17.205 201.105Z" fill="#3CFFDC"/>
<g opacity="0.1">
<path opacity="0.1" d="M23.3072 202.982C24.7665 201.035 25.6616 198.777 26.689 196.588C27.1004 195.688 27.563 194.811 28.0744 193.964L28.8528 193.064C28.9851 193.177 29.1135 193.29 29.2419 193.407C29.8852 193.301 30.5397 193.283 31.1878 193.352L32.0362 197.215L32.0478 193.5C33.0127 193.723 33.9225 194.14 34.7223 194.724C35.522 195.309 36.1952 196.049 36.7013 196.901C37.2074 197.753 37.5359 198.698 37.6669 199.681C37.7979 200.663 37.7288 201.662 37.4638 202.616C37.1987 203.571 36.7432 204.463 36.1247 205.236C35.5061 206.01 34.7374 206.651 33.8648 207.12C32.9921 207.588 32.0337 207.875 31.0473 207.963C30.0608 208.051 29.0668 207.939 28.125 207.632C28.0226 207.813 27.8698 207.96 27.6853 208.056C27.4929 208.153 27.2754 208.189 27.0621 208.158C26.8489 208.128 26.6502 208.032 26.493 207.885C26.3359 207.737 26.2278 207.545 26.1835 207.334C26.1392 207.123 26.1608 206.903 26.2454 206.705C25.9117 206.472 25.598 206.211 25.3075 205.926C23.8084 206.167 22.2716 205.94 20.906 205.276C21.8245 204.646 22.6353 203.871 23.3072 202.982Z" fill="black"/>
</g>
<path opacity="0.1" d="M49.1361 194.704C49.0739 194.581 49.0365 194.447 49.0261 194.31C49.0157 194.173 49.0325 194.035 49.0755 193.904C49.1185 193.774 49.187 193.653 49.2768 193.549C49.3667 193.445 49.4763 193.359 49.5992 193.298C49.7461 193.223 49.909 193.184 50.074 193.185C50.3709 191.608 51.176 190.172 52.3662 189.096C52.1737 188.348 52.1015 187.574 52.1521 186.802L56.001 186.156L52.2611 185.919C52.3289 185.567 52.4225 185.221 52.5413 184.883C52.3943 184.785 52.2751 184.651 52.195 184.493C52.1014 184.306 52.066 184.094 52.0933 183.887C52.1206 183.679 52.2095 183.484 52.3483 183.327C52.4872 183.17 52.6699 183.058 52.8728 183.006C53.0757 182.953 53.2896 182.963 53.487 183.033C54.1743 182.055 55.0928 181.261 56.1606 180.724C57.4182 180.085 58.8333 179.823 60.2361 179.969C61.6389 180.115 62.9699 180.662 64.0695 181.546C65.1691 182.43 65.9907 183.612 66.4357 184.951C66.8807 186.29 66.9303 187.729 66.5785 189.096C66.7615 189.175 66.9182 189.304 67.0305 189.468C67.1428 189.632 67.2059 189.825 67.2124 190.024C67.2189 190.224 67.1686 190.42 67.0674 190.592C66.9662 190.763 66.8182 190.902 66.6408 190.993C66.5078 191.06 66.362 191.098 66.213 191.105C66.0641 191.112 65.9154 191.087 65.7769 191.031C65.4013 191.661 64.9329 192.231 64.3875 192.721C64.7864 194.274 64.6675 195.915 64.0489 197.394L58.9003 196.039L63.5041 198.465C62.8129 199.569 61.8408 200.469 60.6875 201.073C59.5341 201.676 58.2411 201.963 56.9408 201.902C55.6406 201.841 54.3799 201.435 53.2881 200.725C52.1964 200.016 51.3127 199.029 50.7278 197.866C50.3206 197.056 50.0647 196.178 49.9728 195.276C49.7961 195.26 49.6264 195.199 49.48 195.099C49.3335 194.999 49.2151 194.863 49.1361 194.704Z" fill="#3CFFDC"/>
<path opacity="0.1" d="M49.1361 194.704C49.0739 194.581 49.0365 194.447 49.0261 194.31C49.0157 194.173 49.0325 194.035 49.0755 193.904C49.1185 193.774 49.187 193.653 49.2768 193.549C49.3667 193.445 49.4763 193.359 49.5992 193.298C49.7461 193.223 49.909 193.184 50.074 193.185C50.3709 191.608 51.176 190.172 52.3662 189.096C52.3351 188.975 52.3078 188.851 52.2845 188.73C52.4241 188.83 52.5543 188.942 52.6736 189.065C53.3702 189.844 53.7283 190.852 54.4132 191.623C55.2714 192.509 56.4252 193.048 57.6549 193.138C58.873 193.222 60.0968 193.124 61.2859 192.846C62.2665 192.593 63.2781 192.482 64.2902 192.515L64.5782 192.554L64.3992 192.721C64.798 194.274 64.6792 195.915 64.0606 197.394L58.9003 196.039L63.5041 198.465C62.8129 199.569 61.8408 200.469 60.6875 201.073C59.5341 201.676 58.241 201.963 56.9408 201.902C55.6406 201.841 54.3799 201.435 53.2881 200.725C52.1963 200.016 51.3127 199.029 50.7278 197.866C50.3206 197.056 50.0647 196.178 49.9728 195.276C49.7961 195.26 49.6264 195.199 49.48 195.099C49.3335 194.999 49.2151 194.863 49.1361 194.704Z" fill="black"/>
</g>
<path opacity="0.1" d="M134.788 20.2141C133.249 19.9219 131.658 20.0954 130.219 20.7126C129.355 21.0976 128.421 21.2966 127.475 21.2966C126.53 21.2966 125.595 21.0976 124.732 20.7126C123.711 20.2649 122.605 20.0446 121.491 20.0667C120.377 20.0889 119.281 20.3531 118.279 20.8411C117.707 21.1435 117.07 21.3025 116.423 21.3045C113.808 21.3045 111.632 18.6682 111.181 15.1908C111.702 14.8083 112.146 14.3299 112.488 13.7811C114.022 11.3084 116.38 9.7196 119.061 9.7196C121.743 9.7196 124.078 11.2772 125.611 13.7344C126.069 14.4723 126.709 15.0798 127.47 15.4986C128.231 15.9173 129.086 16.1332 129.954 16.1253H130.024C132.087 16.1137 133.889 17.7842 134.788 20.2141Z" fill="#3CFFDC"/>
<path opacity="0.1" d="M142.734 9.31073L138.508 11.9937L141.073 7.32085C140.345 6.74097 139.446 6.42032 138.516 6.40964H138.45C138.156 6.41323 137.863 6.39108 137.574 6.34344L136.138 7.25466L136.753 6.13706C135.741 5.78467 134.865 5.12427 134.247 4.24843L131.674 5.85668L133.293 2.90887C131.795 1.10592 129.771 0 127.549 0C124.883 0 122.49 1.58878 120.972 4.06152C120.518 4.80011 119.877 5.4053 119.113 5.81566C118.35 6.22602 117.491 6.42691 116.625 6.39796H116.497C113.555 6.39796 111.165 9.73518 111.165 13.859C111.165 17.9828 113.555 21.3161 116.497 21.3161C117.144 21.3142 117.781 21.1552 118.353 20.8528C119.355 20.3644 120.451 20.1003 121.566 20.0788C122.68 20.0573 123.785 20.2789 124.806 20.7281C125.669 21.112 126.604 21.3103 127.549 21.3103C128.494 21.3103 129.429 21.112 130.293 20.7281C131.305 20.2884 132.4 20.0719 133.503 20.0934C134.607 20.1149 135.692 20.3739 136.687 20.8528C137.255 21.1471 137.884 21.3019 138.524 21.3045C141.47 21.3045 143.855 17.9672 143.855 13.8473C143.866 12.2653 143.48 10.7057 142.734 9.31073Z" fill="#3CFFDC"/>
<path opacity="0.1" d="M46.8361 74.1626C44.6386 73.7465 42.367 73.9932 40.3098 74.8713C39.0752 75.4189 37.7393 75.7002 36.3888 75.6969C35.0384 75.6935 33.7038 75.4056 32.472 74.8518C31.0144 74.2124 29.4354 73.8975 27.8442 73.9291C26.2529 73.9607 24.6876 74.338 23.2566 75.0349C22.4381 75.4663 21.5275 75.6934 20.6024 75.6969C16.8664 75.6969 13.757 71.9313 13.111 66.9625C13.8575 66.4181 14.4918 65.7345 14.979 64.9492C17.17 61.4173 20.5635 59.147 24.3735 59.147C28.1834 59.147 31.5341 61.39 33.7134 64.883C34.3684 65.9417 35.2861 66.8126 36.3773 67.4111C37.4685 68.0095 38.6959 68.3151 39.9401 68.2981H40.0374C42.9873 68.2942 45.5635 70.6813 46.8361 74.1626Z" fill="#3CFFDC"/>
<path opacity="0.1" d="M58.1998 58.5668L52.1599 62.3986L55.8259 55.7281C54.7869 54.8982 53.5009 54.4391 52.1716 54.4235H52.0743C51.6547 54.4297 51.2353 54.3984 50.8212 54.3301L48.782 55.6502L49.6615 54.0536C48.2103 53.5462 46.9569 52.5919 46.0812 51.3278L42.4152 53.6642L44.723 49.4197C42.5787 46.8457 39.6911 45.2686 36.5155 45.2686C32.7055 45.2686 29.312 47.5349 27.121 51.0668C26.4721 52.1267 25.5539 52.9954 24.46 53.5844C23.3662 54.1734 22.1358 54.4616 20.8943 54.4196H20.6881C16.4812 54.4196 13.0721 59.1899 13.0721 65.0777C13.0721 70.9656 16.4812 75.7358 20.6881 75.7358C21.6138 75.7333 22.5249 75.5048 23.3422 75.0699C24.7736 74.3737 26.339 73.9971 27.9302 73.9661C29.5214 73.9352 31.1004 74.2507 32.5576 74.8908C33.7895 75.4445 35.1241 75.7324 36.4745 75.7358C37.8249 75.7392 39.1609 75.4579 40.3954 74.9103C41.842 74.282 43.4067 73.9725 44.9833 74.0027C46.56 74.033 48.1116 74.4023 49.5331 75.0855C50.3427 75.5095 51.2423 75.7325 52.156 75.7358C56.3629 75.7358 59.772 70.9617 59.772 65.0777C59.8014 62.8099 59.2607 60.5711 58.1998 58.5668Z" fill="#3CFFDC"/>
<path opacity="0.1" d="M291.084 35.401C292.623 35.109 294.214 35.2825 295.653 35.8994C296.516 36.2846 297.45 36.4837 298.395 36.4837C299.34 36.4837 300.274 36.2846 301.137 35.8994C302.157 35.4518 303.263 35.2314 304.377 35.2536C305.491 35.2758 306.587 35.54 307.589 36.0279C308.161 36.3299 308.798 36.4889 309.445 36.4913C312.06 36.4913 314.24 33.8551 314.691 30.3777C314.169 29.9962 313.725 29.5176 313.384 28.968C311.858 26.4875 309.473 24.887 306.799 24.887C304.125 24.887 301.786 26.4446 300.253 28.9018C299.796 29.643 299.155 30.2536 298.393 30.6745C297.631 31.0954 296.773 31.3124 295.902 31.3044H295.836C293.766 31.3005 291.96 32.9711 291.084 35.401Z" fill="#3CFFDC"/>
<path opacity="0.1" d="M283.114 24.4976L287.341 27.1728L284.772 22.4999C285.5 21.9206 286.399 21.6 287.329 21.5887H287.399C287.692 21.5921 287.985 21.5699 288.275 21.5225L289.707 22.4337L289.092 21.3161C290.111 20.9696 290.996 20.3118 291.621 19.4353L294.186 21.063L292.563 18.1152C294.065 16.3123 296.066 15.2063 298.311 15.2063C300.977 15.2063 303.37 16.7951 304.888 19.2679C305.342 20.0067 305.983 20.6121 306.747 21.0225C307.51 21.4329 308.369 21.6337 309.235 21.6043H309.375C312.321 21.6043 314.707 24.9415 314.707 29.0653C314.707 33.1892 312.321 36.5225 309.375 36.5225C308.728 36.5196 308.091 36.3606 307.519 36.0591C306.517 35.5708 305.421 35.3067 304.306 35.2851C303.192 35.2636 302.087 35.4852 301.067 35.9345C300.203 36.3182 299.269 36.5165 298.325 36.5165C297.38 36.5165 296.446 36.3182 295.583 35.9345C294.57 35.4947 293.475 35.2781 292.371 35.2996C291.267 35.3211 290.18 35.5802 289.185 36.0591C288.618 36.3538 287.988 36.5087 287.348 36.5108C284.406 36.5108 282.017 33.1736 282.017 29.0537C281.996 27.467 282.373 25.9005 283.114 24.4976Z" fill="#3CFFDC"/>
<path opacity="0.1" d="M239.582 302.523C264.299 302.523 284.336 299.036 284.336 294.734C284.336 290.433 264.299 286.946 239.582 286.946C214.865 286.946 194.828 290.433 194.828 294.734C194.828 299.036 214.865 302.523 239.582 302.523Z" fill="#3CFFDC"/>
<path d="M216.158 257.741L146.813 256.849L147.019 255.069L150.37 225.712H211.27L215.75 255.069L216.092 257.297L216.158 257.741Z" fill="#D0D2D5"/>
<path opacity="0.1" d="M216.092 257.297H181.488L146.813 256.849L147.019 255.069H215.75L216.092 257.297Z" fill="black"/>
<path d="M227.273 255.517H135.255V257.741H227.273V255.517Z" fill="#D0D2D5"/>
<path d="M315.065 49.3885C315.07 47.8541 314.466 46.3804 313.386 45.291C312.306 44.2017 310.839 43.5858 309.305 43.5785H52.3311C51.5712 43.5821 50.8194 43.7354 50.1186 44.0297C49.4179 44.324 48.782 44.7536 48.2471 45.2938C47.7123 45.834 47.289 46.4744 47.0015 47.1783C46.714 47.8822 46.5679 48.6359 46.5715 49.3963V205.256H315.065V49.3885Z" fill="#3F3D56"/>
<path d="M46.5715 203.699V221.954C46.5715 223.483 47.1783 224.949 48.2585 226.029C49.3386 227.11 50.8036 227.717 52.3312 227.717H309.305C310.833 227.717 312.298 227.11 313.378 226.029C314.458 224.949 315.065 223.483 315.065 221.954V203.699H46.5715Z" fill="#D0D2D5"/>
<path d="M305.285 53.3527H57.6861V193.465H305.285V53.3527Z" fill="white"/>
<path d="M182.153 220.79C183.062 220.791 183.96 220.585 184.778 220.188C185.595 219.79 186.312 219.212 186.874 218.496C187.044 218.278 187.2 218.05 187.341 217.811L184.044 217.254L187.605 217.277C187.947 216.534 188.133 215.729 188.152 214.912C188.172 214.094 188.024 213.281 187.718 212.523L182.943 214.999L187.348 211.76C186.935 211.048 186.379 210.429 185.716 209.941C185.053 209.454 184.297 209.108 183.495 208.925C182.693 208.742 181.862 208.726 181.053 208.878C180.245 209.03 179.476 209.346 178.795 209.808C178.114 210.27 177.535 210.867 177.094 211.562C176.653 212.257 176.36 213.036 176.233 213.849C176.105 214.663 176.147 215.493 176.354 216.29C176.561 217.087 176.929 217.833 177.436 218.481C177.996 219.199 178.711 219.78 179.528 220.18C180.346 220.58 181.243 220.789 182.153 220.79Z" fill="#3CFFDC"/>
<path opacity="0.1" d="M188.154 227.714L215.82 255.517L211.574 227.714H188.154Z" fill="black"/>
<path opacity="0.1" d="M305.359 53.3682H57.4915V61.5536H305.359V53.3682Z" fill="#444053"/>
<path opacity="0.3" d="M218.007 54.7935H143.777C143.653 54.7935 143.552 54.8946 143.552 55.0193V59.5481C143.552 59.6729 143.653 59.774 143.777 59.774H218.007C218.132 59.774 218.233 59.6729 218.233 59.5481V55.0193C218.233 54.8946 218.132 54.7935 218.007 54.7935Z" fill="#3CFFDC"/>
<path d="M216.014 57.7997H215.831L215.765 57.7413C215.992 57.469 216.116 57.1259 216.115 56.7717C216.113 56.4809 216.025 56.1973 215.862 55.9567C215.698 55.7161 215.468 55.5292 215.198 55.4197C214.929 55.3102 214.634 55.283 214.349 55.3414C214.064 55.3998 213.803 55.5413 213.599 55.748C213.394 55.9547 213.256 56.2174 213.2 56.5028C213.145 56.7883 213.175 57.0838 213.288 57.352C213.4 57.6202 213.589 57.8491 213.831 58.0099C214.073 58.1707 214.358 58.2561 214.648 58.2553C215.003 58.254 215.346 58.1287 215.617 57.9009L215.684 57.9593V58.1424L216.824 59.2833L217.162 58.9407L216.014 57.7997ZM214.648 57.7997C214.445 57.8005 214.246 57.7408 214.077 57.6283C213.907 57.5158 213.775 57.3556 213.696 57.1678C213.618 56.98 213.597 56.7732 213.636 56.5735C213.676 56.3738 213.773 56.1903 213.917 56.0461C214.06 55.902 214.243 55.8037 214.443 55.7637C214.642 55.7237 214.849 55.7438 215.037 55.8215C215.225 55.8992 215.385 56.031 215.498 56.2001C215.611 56.3693 215.672 56.5682 215.672 56.7717C215.673 56.9066 215.647 57.0404 215.596 57.1654C215.545 57.2903 215.47 57.4039 215.375 57.4995C215.279 57.5951 215.166 57.6709 215.042 57.7224C214.917 57.7739 214.783 57.8002 214.648 57.7997Z" fill="#3F3D56"/>
<path opacity="0.8" d="M61.9474 58.9601C62.7749 58.9601 63.4457 58.2889 63.4457 57.4609C63.4457 56.6329 62.7749 55.9617 61.9474 55.9617C61.1199 55.9617 60.4491 56.6329 60.4491 57.4609C60.4491 58.2889 61.1199 58.9601 61.9474 58.9601Z" fill="#FA5959"/>
<path opacity="0.8" d="M66.0687 58.9601C66.8962 58.9601 67.567 58.2889 67.567 57.4609C67.567 56.6329 66.8962 55.9617 66.0687 55.9617C65.2412 55.9617 64.5704 56.6329 64.5704 57.4609C64.5704 58.2889 65.2412 58.9601 66.0687 58.9601Z" fill="#FED253"/>
<path opacity="0.8" d="M70.1938 58.9601C71.0213 58.9601 71.6921 58.2889 71.6921 57.4609C71.6921 56.6329 71.0213 55.9617 70.1938 55.9617C69.3664 55.9617 68.6956 56.6329 68.6956 57.4609C68.6956 58.2889 69.3664 58.9601 70.1938 58.9601Z" fill="#8CCF4D"/>
<path d="M194.602 113.473C191.205 108.956 186.282 106.106 180.803 106.106C175.323 106.106 170.4 108.956 167.003 113.473C167.754 115.317 168.865 116.991 170.272 118.399C172.01 120.138 174.151 121.419 176.504 122.128C178.857 122.838 181.349 122.954 183.758 122.467C186.166 121.979 188.417 120.903 190.309 119.333C192.202 117.764 193.676 115.751 194.602 113.473Z" fill="#3CFFDC"/>
<path d="M164.524 115.728C164.737 115.883 164.967 116.013 165.209 116.117C167.816 121.394 173.218 125.432 179.417 125.771V150.79C174.728 150.51 170.972 148.146 167.816 144.458C167.544 144.665 167.341 144.852 167.155 145.027C166.892 145.275 166.709 145.595 166.628 145.947C166.547 146.299 166.572 146.667 166.699 147.005C166.87 147.47 166.915 147.973 166.828 148.461C166.741 148.95 166.526 149.406 166.205 149.784C165.883 150.161 165.467 150.446 165 150.61C164.532 150.774 164.029 150.81 163.542 150.715C163.056 150.62 162.603 150.398 162.231 150.07C161.859 149.742 161.581 149.322 161.425 148.851C161.269 148.38 161.241 147.876 161.344 147.391C161.446 146.906 161.676 146.457 162.01 146.09C162.11 145.98 162.219 145.878 162.337 145.786C162.404 145.724 162.479 145.671 162.558 145.627C162.987 144.077 164.002 142.679 165.652 141.398C163.795 138.222 162.659 134.676 162.325 131.012C162.084 131.014 161.844 131.03 161.605 131.059C161.28 131.102 160.974 131.234 160.72 131.44C160.465 131.647 160.272 131.919 160.161 132.227C159.982 132.705 159.675 133.125 159.273 133.441C158.872 133.758 158.392 133.958 157.885 134.021C157.379 134.083 156.864 134.006 156.398 133.797C155.932 133.588 155.532 133.256 155.242 132.836C154.951 132.416 154.781 131.924 154.749 131.414C154.718 130.904 154.827 130.395 155.064 129.942C155.301 129.49 155.657 129.111 156.094 128.846C156.531 128.582 157.032 128.442 157.542 128.442C157.655 128.444 157.768 128.452 157.881 128.465C158.299 128.164 158.763 127.933 159.254 127.78C160.215 127.479 161.214 127.318 162.22 127.301C162.319 124.703 162.81 122.135 163.675 119.684C163.047 119.327 162.454 118.909 161.905 118.438C161.37 117.96 160.931 117.384 160.613 116.74C160.444 116.415 160.186 116.145 159.869 115.962C159.626 115.815 159.403 115.635 159.208 115.428C158.862 115.055 158.624 114.594 158.521 114.096C158.417 113.598 158.452 113.08 158.62 112.6C158.789 112.12 159.085 111.695 159.477 111.371C159.87 111.047 160.343 110.836 160.846 110.761C161.349 110.686 161.863 110.75 162.333 110.947C162.802 111.143 163.209 111.463 163.51 111.874C163.811 112.284 163.994 112.769 164.039 113.276C164.085 113.783 163.991 114.293 163.769 114.75C163.943 115.129 164.201 115.464 164.524 115.728Z" fill="#3CFFDC"/>
<path d="M196.535 115.997C196.322 116.152 196.092 116.282 195.85 116.387C193.243 121.663 187.841 125.701 181.642 126.04V151.059C186.331 150.779 190.087 148.415 193.243 144.728C193.515 144.934 193.718 145.121 193.905 145.296C194.167 145.544 194.35 145.864 194.431 146.216C194.512 146.568 194.487 146.936 194.36 147.274C194.189 147.74 194.144 148.242 194.231 148.731C194.318 149.219 194.533 149.675 194.855 150.053C195.176 150.43 195.592 150.716 196.06 150.879C196.527 151.043 197.03 151.079 197.517 150.984C198.003 150.89 198.456 150.667 198.828 150.339C199.2 150.012 199.478 149.591 199.634 149.12C199.79 148.649 199.818 148.145 199.716 147.66C199.613 147.175 199.383 146.726 199.049 146.359C198.949 146.249 198.84 146.147 198.722 146.055C198.655 145.994 198.581 145.94 198.501 145.896C198.073 144.346 197.057 142.948 195.407 141.667C197.264 138.491 198.4 134.945 198.734 131.281C198.975 131.284 199.215 131.299 199.454 131.328C199.779 131.372 200.085 131.504 200.34 131.71C200.594 131.916 200.787 132.188 200.898 132.496C201.078 132.975 201.385 133.395 201.786 133.711C202.187 134.027 202.667 134.227 203.174 134.29C203.681 134.352 204.195 134.275 204.661 134.066C205.127 133.857 205.527 133.525 205.818 133.105C206.108 132.685 206.278 132.193 206.31 131.683C206.341 131.173 206.233 130.664 205.996 130.212C205.759 129.759 205.402 129.38 204.965 129.116C204.529 128.851 204.028 128.711 203.517 128.711C203.404 128.713 203.291 128.721 203.178 128.735C202.76 128.434 202.296 128.202 201.805 128.049C200.844 127.749 199.845 127.587 198.839 127.57C198.74 124.973 198.249 122.405 197.384 119.953C198.013 119.596 198.605 119.179 199.154 118.707C199.689 118.229 200.128 117.653 200.446 117.01C200.615 116.684 200.873 116.414 201.19 116.231C201.434 116.084 201.656 115.905 201.851 115.697C202.197 115.324 202.435 114.863 202.538 114.365C202.642 113.867 202.608 113.35 202.439 112.869C202.27 112.389 201.974 111.964 201.582 111.64C201.189 111.316 200.716 111.105 200.213 111.03C199.71 110.956 199.196 111.02 198.726 111.216C198.257 111.412 197.85 111.732 197.549 112.143C197.248 112.553 197.065 113.038 197.02 113.545C196.974 114.052 197.068 114.562 197.29 115.02C197.116 115.399 196.858 115.733 196.535 115.997Z" fill="#3CFFDC"/>
<path d="M265.022 290.194C264.796 289.835 264.51 289.518 264.177 289.255C262.477 287.647 261.687 285.287 261.267 282.974C260.846 280.661 260.726 278.301 260.052 276.039C259.686 274.879 259.228 273.75 258.682 272.663C258.293 271.83 257.803 270.198 257.091 269.614C256.951 269.493 256.782 269.411 256.6 269.376C256.264 268.661 255.785 268.022 255.192 267.499C254.079 266.491 252.72 265.689 251.977 264.384C251.773 263.932 251.521 263.502 251.226 263.103C250.724 262.55 249.93 262.324 249.467 261.74C248.864 260.985 249 259.902 249.078 258.94C249.156 257.978 249.078 256.826 248.245 256.319C247.747 256.012 247.105 256.043 246.587 255.77C245.809 255.381 245.501 254.4 245.517 253.523C245.533 252.647 245.805 251.795 245.875 250.918C246.093 248.13 244.256 245.358 244.964 242.655C245.233 241.631 245.848 240.743 246.303 239.789C246.462 239.472 246.592 239.141 246.692 238.8C247.907 239.282 249.183 239.59 250.483 239.715C248.338 234.902 248.883 229.31 247.883 224.139L248.012 223.964C249.022 222.63 249.595 221.017 249.654 219.345C249.654 217.422 248.755 215.622 248.35 213.738C248.004 212.137 248.019 210.463 247.572 208.89C247.261 207.912 246.849 206.97 246.342 206.078C245.857 205.177 245.347 204.291 244.813 203.418C244.314 201.767 243.815 200.116 243.314 198.465C242.614 196.148 241.894 193.792 240.532 191.791C240.034 191.059 239.882 189.571 239.115 189.127C238.493 188.805 237.786 188.681 237.092 188.773C236.01 188.165 235.06 187.289 234.924 186.09C234.91 185.828 234.937 185.565 235.002 185.311H235.134C236.846 185.155 237.714 183.644 238.605 182.32C240.045 180.179 239.497 177.281 238.605 174.844C238.384 174.074 237.984 173.368 237.438 172.784C236.189 171.616 234.212 171.873 232.601 171.308C232.06 171.121 231.554 170.837 231.001 170.704C229.931 170.455 228.81 170.806 227.829 171.3C226.849 171.795 225.934 172.433 224.907 172.823C223.879 173.212 222.611 173.52 222.358 174.575C222.287 174.931 222.316 175.299 222.443 175.638C222.68 176.315 223.095 176.916 223.646 177.375C223.208 178.277 222.972 179.264 222.952 180.267C222.933 181.27 223.131 182.265 223.533 183.184C223.935 184.103 224.532 184.923 225.282 185.589C226.031 186.255 226.917 186.75 227.876 187.04C228.172 187.515 228.448 187.998 228.701 188.493C229.153 189.365 229.534 190.393 229.378 191.327C229.097 191.627 228.837 191.946 228.6 192.281C227.483 193.839 226.849 195.665 226.265 197.488C225.481 199.815 224.853 202.192 224.385 204.602C223.436 206.623 222.276 208.555 221.587 210.677C220.354 210.679 219.126 210.514 217.937 210.186L214.652 209.443C213.508 209.182 212.317 208.901 211.422 208.146C210.947 207.756 210.578 207.239 210.095 206.853C209.613 206.468 208.644 206.016 208.114 206.335C208.018 206.394 207.927 206.463 207.846 206.542C207.363 205.564 206.904 204.594 206.344 203.648C205.538 202.324 204.339 201.113 202.822 200.86C201.894 200.711 200.945 200.932 200.179 201.475C199.292 202.106 198.735 203.422 199.401 204.31C199.567 204.508 199.748 204.693 199.942 204.863C200.392 205.383 200.795 205.942 201.144 206.534C202.399 208.296 204.275 209.515 206.394 209.945L206.258 210.334C205.982 211.144 205.394 212.122 205.542 212.963L220.151 217.967C221.088 218.347 222.083 218.567 223.093 218.617C223.487 218.614 223.88 218.561 224.261 218.461V219.209V219.24C224.3 224.376 223.482 229.478 223.331 234.61C223.303 235.548 223.331 236.557 223.922 237.289C224.584 238.091 225.759 238.251 226.783 238.068C227.029 238.026 227.27 237.972 227.506 237.904C227.853 239.196 228.102 240.512 228.254 241.841L229.219 248.796C229.343 249.508 229.394 250.231 229.37 250.953C229.258 252.585 228.398 254.045 227.775 255.552C227.152 257.059 226.783 258.862 227.6 260.272C227.857 260.708 228.211 261.078 228.44 261.53C228.732 262.229 228.865 262.985 228.83 263.742C228.889 265.839 228.946 267.939 229.001 270.042C228.831 270.014 228.657 270.049 228.51 270.139C227.701 270.77 227.79 273.773 227.732 274.703C227.67 276.261 227.732 277.85 227.646 279.423C227.545 281.543 227.205 283.645 226.631 285.689C226.49 286.353 226.184 286.97 225.74 287.484C225.284 287.88 224.741 288.161 224.156 288.305C222.217 288.913 220.189 289.189 218.159 289.123C217.337 289.096 216.481 289.018 215.719 289.329C214.956 289.641 214.341 290.498 214.617 291.277C214.855 291.931 215.575 292.242 216.224 292.488C217.709 293.011 219.142 293.67 220.505 294.458C221.03 294.816 221.583 295.13 222.159 295.396C222.711 295.595 223.283 295.736 223.864 295.817L230.764 297.009C232.176 297.25 233.877 297.398 234.776 296.23C235.262 295.599 235.333 294.742 235.309 293.94C235.27 292.382 234.959 290.798 235.161 289.24C235.315 288.319 235.557 287.415 235.885 286.541C236.573 284.498 237.263 282.456 237.955 280.416C238.648 278.368 239.349 276.3 239.617 274.15C239.715 273.372 239.707 272.484 239.111 271.997C238.961 271.873 238.786 271.783 238.598 271.732C238.574 269.855 238.329 267.974 238.434 266.097C238.461 265.63 238.508 265.163 238.547 264.692C238.908 265.035 239.23 265.416 239.508 265.829C240.174 266.872 240.419 268.251 241.435 268.944C242.299 269.536 243.579 269.505 244.186 270.361C244.381 270.691 244.528 271.046 244.622 271.417C244.974 272.335 245.503 273.175 246.179 273.889C246.41 274.744 246.733 275.572 247.14 276.358C247.713 277.571 248.284 278.779 248.852 279.984C249.436 281.284 250.086 282.554 250.798 283.788C251.342 284.565 251.78 285.411 252.102 286.304C252.65 288.227 251.755 290.338 250.339 291.755C248.922 293.173 247.054 293.987 245.213 294.746C245.019 294.812 244.842 294.918 244.692 295.058C244.532 295.247 244.448 295.488 244.455 295.735C244.455 296.635 245.194 297.406 246.042 297.682C246.91 297.915 247.818 297.949 248.7 297.78C253.674 297.176 258.632 295.961 263.029 293.543C263.687 293.231 264.27 292.781 264.738 292.223C264.964 291.942 265.11 291.605 265.16 291.248C265.21 290.89 265.162 290.526 265.022 290.194Z" fill="url(#paint0_linear_31:4857)"/>
<path d="M244.003 202.869C244.833 204.144 245.612 205.45 246.338 206.787C246.847 207.671 247.261 208.607 247.572 209.579C248.023 211.137 248.012 212.799 248.35 214.388C248.739 216.257 249.65 218.041 249.65 219.957C249.591 221.617 249.017 223.217 248.008 224.536C247.002 225.844 245.85 227.033 244.575 228.08C241.636 220.462 239.995 212.405 239.718 204.244C239.68 203.115 239.672 201.95 240.084 200.895C240.337 200.233 241.551 198.419 242.334 199.131C242.618 199.392 242.692 200.568 242.867 200.961C243.195 201.626 243.575 202.264 244.003 202.869Z" fill="#2F2E41"/>
<path opacity="0.1" d="M244.003 202.869C244.833 204.144 245.612 205.45 246.338 206.787C246.847 207.671 247.261 208.607 247.572 209.579C248.023 211.137 248.012 212.799 248.35 214.388C248.739 216.257 249.65 218.041 249.65 219.957C249.591 221.617 249.017 223.217 248.008 224.536C247.002 225.844 245.85 227.033 244.575 228.08C241.636 220.462 239.995 212.405 239.718 204.244C239.68 203.115 239.672 201.95 240.084 200.895C240.337 200.233 241.551 198.419 242.334 199.131C242.618 199.392 242.692 200.568 242.867 200.961C243.195 201.626 243.575 202.264 244.003 202.869Z" fill="black"/>
<path d="M141.403 149.743C138.325 152.819 137.955 154.174 136.107 154.785C134.258 155.397 127.608 158.843 129.697 162.663L135.317 166.378L135.48 166.487L136.34 169.073L127.841 184.213C127.841 184.213 113.831 177.803 112.457 187.285C111.084 196.767 111.955 199.357 111.586 204.419C111.216 209.482 111.706 210.946 110.473 210.946C109.239 210.946 108.752 207.62 108.752 207.62C108.752 207.62 108.675 207.468 108.538 207.184C106.705 203.372 94.2638 175.385 114.193 156.148C114.193 156.148 123.424 155.541 125.646 144.949C127.179 137.628 132.542 138.259 136.107 139.75C137.266 140.205 138.345 140.84 139.306 141.631C140.17 142.45 140.939 143.365 141.598 144.357C142.614 145.961 143.166 147.975 141.403 149.743Z" fill="#D0D2D5"/>
<path opacity="0.1" d="M135.48 166.487L136.34 169.073L127.841 184.213C127.841 184.213 113.831 177.803 112.457 187.285C111.084 196.767 111.955 199.357 111.586 204.419C111.216 209.482 111.706 210.946 110.473 210.946C109.239 210.946 108.752 207.62 108.752 207.62C108.752 207.62 108.675 207.468 108.538 207.184C107.92 202.449 104.783 174.75 116.154 176.222C116.154 176.222 125.381 180.537 126.856 178.816C128.024 177.453 133.208 169.614 135.317 166.398L135.48 166.487Z" fill="black"/>
<path opacity="0.1" d="M141.598 144.334L135.978 150.724C135.978 150.724 129.452 159.462 128.098 159.092C127.692 159.004 127.279 158.956 126.864 158.948C126.412 158.914 125.98 158.752 125.616 158.481C125.253 158.21 124.973 157.842 124.81 157.419C124.647 156.996 124.608 156.535 124.696 156.091C124.784 155.646 124.996 155.235 125.308 154.906C127.534 152.57 131.635 148.134 131.904 147.149C132.172 146.164 134.784 141.845 136.091 139.731C137.25 140.186 138.33 140.82 139.29 141.612C140.16 142.429 140.934 143.342 141.598 144.334Z" fill="black"/>
<path d="M300.596 236.269C299.642 238.177 294.758 245.334 292.622 248.461L291.621 249.933C291.621 249.933 291.232 252.519 284.854 249.314C278.475 246.109 128.612 182.834 128.612 182.834L127.596 179.781L134.99 168.703L299.245 232.203C299.245 232.203 301.829 233.804 300.596 236.269Z" fill="#454B69"/>
<path opacity="0.1" d="M292.622 248.461L291.622 249.933C291.622 249.933 291.232 252.519 284.854 249.314C278.475 246.109 128.612 182.834 128.612 182.834L127.596 179.781L292.622 248.461Z" fill="black"/>
<path d="M202.226 207.13C200.705 206.88 199.016 207.001 197.833 207.99C197.117 208.596 196.665 209.456 196.572 210.389C196.47 211.468 197.097 212.749 198.179 212.83C198.439 212.833 198.699 212.816 198.957 212.78C199.641 212.777 200.323 212.834 200.996 212.951C202.322 213.076 203.658 212.881 204.892 212.382C206.127 211.883 207.224 211.096 208.091 210.085C209.021 208.917 207.795 208.411 206.698 208.177C205.196 207.858 203.728 207.371 202.226 207.13Z" fill="#FBBEBE"/>
<path d="M228.254 242.297L229.219 249.158C229.342 249.866 229.391 250.585 229.367 251.304C229.254 252.92 228.394 254.369 227.775 255.864C227.156 257.359 226.779 259.15 227.6 260.537C227.853 260.969 228.207 261.339 228.436 261.787C228.728 262.479 228.861 263.228 228.826 263.979L229.09 273.714C232.094 273.919 235.11 273.902 238.111 273.664C238.229 273.669 238.344 273.633 238.438 273.562C238.517 273.462 238.557 273.336 238.551 273.208C238.683 270.93 238.286 268.648 238.415 266.37C238.461 265.537 238.578 264.707 238.594 263.87C238.64 260.478 236.967 257.157 237.473 253.804C237.632 252.958 237.84 252.122 238.096 251.3C239.695 245.459 239.356 239.322 239.002 233.29C239.008 233.193 238.981 233.097 238.924 233.017C238.867 232.96 238.794 232.92 238.714 232.904C237.012 232.393 235.211 232.3 233.465 232.632C231.719 232.964 230.078 233.712 228.682 234.812C228.257 235.155 227.187 235.486 226.907 235.895C226.518 236.464 227.028 237.032 227.253 237.636C227.753 239.149 228.089 240.712 228.254 242.297Z" fill="#3F3D56"/>
<path opacity="0.1" d="M228.254 242.297L229.219 249.158C229.342 249.866 229.391 250.585 229.367 251.304C229.254 252.92 228.394 254.369 227.775 255.864C227.156 257.359 226.779 259.15 227.6 260.537C227.853 260.969 228.207 261.339 228.436 261.787C228.728 262.479 228.861 263.228 228.826 263.979L229.09 273.714C232.094 273.919 235.11 273.902 238.111 273.664C238.229 273.669 238.344 273.633 238.438 273.562C238.517 273.462 238.557 273.336 238.551 273.208C238.683 270.93 238.286 268.648 238.415 266.37C238.461 265.537 238.578 264.707 238.594 263.87C238.64 260.478 236.967 257.157 237.473 253.804C237.632 252.958 237.84 252.122 238.096 251.3C239.695 245.459 239.356 239.322 239.002 233.29C239.008 233.193 238.981 233.097 238.924 233.017C238.867 232.96 238.794 232.92 238.714 232.904C237.012 232.393 235.211 232.3 233.465 232.632C231.719 232.964 230.078 233.712 228.682 234.812C228.257 235.155 227.187 235.486 226.907 235.895C226.518 236.464 227.028 237.032 227.253 237.636C227.753 239.149 228.089 240.712 228.254 242.297Z" fill="black"/>
<path d="M246.299 240.229C245.844 241.175 245.233 242.055 244.96 243.072C244.252 245.755 246.085 248.523 245.867 251.273C245.797 252.141 245.529 252.986 245.509 253.854C245.49 254.723 245.809 255.689 246.579 256.09C247.097 256.354 247.747 256.327 248.233 256.631C249.055 257.133 249.148 258.274 249.066 259.232C248.984 260.19 248.848 261.261 249.455 262.009C249.918 262.589 250.712 262.815 251.21 263.364C251.507 263.758 251.759 264.184 251.962 264.633C252.705 265.934 254.063 266.728 255.176 267.748C256.289 268.769 257.231 270.264 256.733 271.678C256.367 272.713 255.34 273.352 254.351 273.839C252.548 274.731 250.644 275.404 248.681 275.844C248.47 275.908 248.247 275.92 248.031 275.879C247.812 275.799 247.617 275.665 247.463 275.49C246.315 274.365 245.128 273.185 244.599 271.67C244.504 271.303 244.358 270.951 244.163 270.626C243.556 269.773 242.275 269.805 241.411 269.217C240.399 268.527 240.154 267.161 239.493 266.129C238.831 265.097 237.862 264.481 237.158 263.574C235.967 262.063 235.675 260.046 234.823 258.321C234.461 257.589 233.998 256.904 233.71 256.14C233.419 255.225 233.24 254.279 233.177 253.321C232.628 248.773 231.231 244.193 232.11 239.692C232.305 238.703 232.604 237.745 232.729 236.724C232.943 234.96 232.604 233.154 232.865 231.393C232.872 231.173 232.928 230.956 233.03 230.76C233.131 230.563 233.276 230.393 233.453 230.26C233.663 230.166 233.892 230.119 234.122 230.124C236.429 230.001 238.742 230.053 241.042 230.28C242.209 230.393 243.517 230.63 244.217 231.584C244.813 232.402 244.781 233.496 244.972 234.489C245.21 235.712 245.828 236.378 246.478 237.336C247.128 238.294 246.778 239.24 246.299 240.229Z" fill="#3F3D56"/>
<path d="M237.321 271.872C237.936 271.872 238.617 271.833 239.092 272.223C239.683 272.71 239.691 273.601 239.598 274.361C239.325 276.495 238.629 278.547 237.932 280.591L235.862 286.67C235.534 287.537 235.292 288.435 235.138 289.349C234.936 290.907 235.247 292.464 235.286 294.022C235.286 294.801 235.235 295.665 234.749 296.292C233.869 297.425 232.153 297.293 230.74 297.071L223.848 295.903C223.267 295.825 222.695 295.686 222.144 295.486C221.568 295.22 221.015 294.909 220.49 294.555C219.126 293.776 217.693 293.124 216.209 292.608C215.563 292.367 214.839 292.059 214.606 291.409C214.329 290.63 214.944 289.773 215.707 289.462C216.47 289.15 217.322 289.228 218.147 289.252C220.176 289.316 222.201 289.043 224.14 288.442C224.724 288.298 225.266 288.018 225.72 287.624C226.182 287.105 226.496 286.471 226.631 285.79C227.218 283.76 227.568 281.669 227.674 279.559C227.755 278.002 227.701 276.444 227.763 274.886C227.802 273.963 227.713 270.992 228.522 270.358C229.141 269.882 231.686 271.195 232.523 271.386C234.096 271.746 235.708 271.91 237.321 271.872Z" fill="#2F2E41"/>
<path d="M260.025 276.203C260.698 278.434 260.803 280.794 261.239 283.087C261.675 285.381 262.446 287.721 264.146 289.318C264.477 289.581 264.763 289.896 264.991 290.252C265.135 290.586 265.183 290.952 265.132 291.312C265.08 291.671 264.93 292.009 264.699 292.289C264.229 292.843 263.647 293.29 262.991 293.601C258.597 296 253.651 297.211 248.665 297.811C247.784 297.976 246.878 297.943 246.011 297.713C245.163 297.425 244.412 296.662 244.427 295.766C244.419 295.521 244.502 295.281 244.661 295.093C244.812 294.954 244.991 294.849 245.186 294.785C247.023 294.03 248.887 293.208 250.308 291.814C251.728 290.42 252.619 288.309 252.071 286.417C251.746 285.53 251.305 284.691 250.759 283.921C250.048 282.696 249.398 281.437 248.813 280.147L247.101 276.553C246.599 275.502 246.093 274.419 246.007 273.259C248.158 273.355 250.306 273.011 252.32 272.246C253.259 271.863 254.135 271.337 254.915 270.689C255.577 270.136 256.18 269.104 257.071 269.824C257.787 270.4 258.239 272.024 258.659 272.846C259.205 273.926 259.662 275.048 260.025 276.203Z" fill="#2F2E41"/>
<path d="M234.932 186.954C235.103 188.45 236.551 189.435 237.932 190.027L229.188 192.819C229.752 191.736 229.297 190.412 228.736 189.314C228.28 188.445 227.759 187.61 227.179 186.818C227.094 186.697 226.997 186.545 227.059 186.405C227.114 186.314 227.202 186.246 227.304 186.214C229.102 185.412 230.954 184.583 232.92 184.291C233.488 184.209 234.562 183.983 234.986 184.559C235.41 185.136 234.85 186.265 234.932 186.954Z" fill="#FBBEBE"/>
<path opacity="0.1" d="M234.932 186.954C235.103 188.45 236.551 189.435 237.932 190.027L229.188 192.819C229.752 191.736 229.297 190.412 228.736 189.314C228.28 188.445 227.759 187.61 227.179 186.818C227.094 186.697 226.997 186.545 227.059 186.405C227.114 186.314 227.202 186.246 227.304 186.214C229.102 185.412 230.954 184.583 232.92 184.291C233.488 184.209 234.562 183.983 234.986 184.559C235.41 185.136 234.85 186.265 234.932 186.954Z" fill="black"/>
<path d="M229.849 188.165C233.636 188.165 236.706 185.093 236.706 181.304C236.706 177.515 233.636 174.443 229.849 174.443C226.062 174.443 222.992 177.515 222.992 181.304C222.992 185.093 226.062 188.165 229.849 188.165Z" fill="#FBBEBE"/>
<path d="M223.907 237.768C224.572 238.566 225.743 238.722 226.767 238.547C229.16 238.157 231.118 236.393 233.461 235.759C236.333 234.98 239.372 235.981 242.085 237.207C244.797 238.434 247.494 239.933 250.459 240.143C247.778 234.162 249.311 226.966 246.747 220.934C246.12 219.458 245.245 218.037 245.104 216.44C244.929 214.458 245.918 212.546 246.07 210.576C246.21 208.82 245.68 207.071 245.175 205.397C244.549 203.341 243.924 201.285 243.299 199.228C242.598 196.927 241.878 194.587 240.52 192.609C240.018 191.88 239.866 190.404 239.104 189.964C237.438 189.003 234.912 190.214 233.106 190.28C231.301 190.346 229.655 191.631 228.6 193.084C227.483 194.618 226.849 196.444 226.265 198.251C225.335 200.941 224.641 203.708 224.191 206.518C224.132 206.939 224.082 207.359 224.043 207.784C223.654 211.783 224.222 215.806 224.253 219.824V219.851C224.292 224.949 223.475 230.015 223.323 235.108C223.307 236.039 223.331 237.055 223.907 237.768Z" fill="#2F2E41"/>
<path opacity="0.1" d="M224.265 219.828C225.607 219.489 226.821 218.621 227.864 217.671C228.768 216.862 229.57 215.947 230.254 214.945C231.115 213.598 231.806 212.15 232.313 210.634C233.753 206.579 234.669 202.356 235.037 198.068C235.138 196.9 235.169 195.646 234.472 194.719C234.081 194.217 233.532 193.862 232.914 193.712C232.295 193.562 231.645 193.626 231.067 193.894C230.149 194.341 229.553 195.249 229.001 196.117C227.907 197.838 226.806 199.583 226.102 201.499C225.79 202.348 225.561 203.22 225.257 204.073C224.948 204.914 224.592 205.737 224.191 206.538C224.132 206.958 224.082 207.379 224.043 207.803C223.681 211.802 224.233 215.809 224.265 219.828Z" fill="black"/>
<path d="M234.453 193.968C235.15 194.894 235.119 196.16 235.021 197.313C234.654 201.601 233.739 205.824 232.297 209.879C231.795 211.408 231.103 212.868 230.238 214.225C229.553 215.225 228.751 216.14 227.849 216.95C226.526 218.158 224.915 219.236 223.121 219.252C222.111 219.204 221.116 218.987 220.178 218.609L205.565 213.633C205.417 212.799 206.005 211.826 206.281 211.024L207.06 208.714C207.281 208.076 207.538 207.387 208.118 207.04C208.698 206.693 209.616 207.168 210.099 207.554C210.582 207.94 210.947 208.446 211.422 208.839C212.321 209.587 213.508 209.867 214.652 210.124L217.933 210.86C219.122 211.186 220.35 211.35 221.583 211.347C222.498 208.551 224.237 206.09 225.222 203.317C225.526 202.468 225.755 201.592 226.07 200.743C226.771 198.827 227.876 197.087 228.97 195.362C229.518 194.497 230.114 193.59 231.036 193.138C231.615 192.868 232.269 192.802 232.89 192.953C233.511 193.104 234.062 193.462 234.453 193.968Z" fill="#2F2E41"/>
<path d="M232.036 182.854C231.984 182.403 231.844 181.966 231.624 181.569C231.509 181.37 231.334 181.213 231.124 181.121C230.914 181.028 230.68 181.005 230.456 181.055C229.771 181.269 229.542 182.328 228.826 182.363C228.343 182.387 227.997 181.896 227.845 181.436C227.693 180.977 227.611 180.451 227.25 180.128C226.998 179.94 226.708 179.807 226.401 179.739C224.739 179.213 223.023 178.243 222.471 176.588C222.341 176.252 222.31 175.886 222.381 175.533C222.634 174.486 223.938 174.17 224.93 173.792C225.923 173.415 226.876 172.768 227.849 172.278C228.822 171.787 229.95 171.44 231.021 171.69C231.564 171.861 232.098 172.059 232.62 172.285C234.231 172.846 236.204 172.585 237.453 173.75C237.999 174.327 238.4 175.027 238.621 175.79C239.493 178.212 240.045 181.086 238.602 183.212C237.71 184.524 236.846 186.024 235.134 186.183C233.142 186.351 232.352 184.544 232.036 182.854Z" fill="#2F2E41"/>
<g opacity="0.1">
<path opacity="0.1" d="M228.993 180.611C228.841 180.151 228.76 179.626 228.401 179.302C228.149 179.114 227.86 178.981 227.553 178.913C225.887 178.387 224.175 177.418 223.619 175.763C223.492 175.426 223.462 175.06 223.533 174.707C223.571 174.541 223.641 174.384 223.739 174.244C223.105 174.521 222.552 174.887 222.397 175.533C222.325 175.886 222.356 176.252 222.486 176.588C223.039 178.243 224.755 179.213 226.417 179.739C226.724 179.807 227.013 179.939 227.265 180.128C227.627 180.451 227.705 180.973 227.861 181.436C228.016 181.9 228.359 182.387 228.841 182.363C229.324 182.34 229.557 181.9 229.865 181.53C229.441 181.475 229.133 181.039 228.993 180.611Z" fill="black"/>
<path opacity="0.1" d="M236.278 185.346C234.278 185.529 233.488 183.707 233.165 182.028C233.122 181.578 232.99 181.141 232.776 180.743C232.661 180.545 232.486 180.388 232.276 180.296C232.066 180.203 231.832 180.18 231.608 180.229C231.253 180.402 230.955 180.672 230.748 181.008C230.927 181.025 231.099 181.083 231.252 181.178C231.404 181.272 231.533 181.401 231.628 181.553C231.848 181.95 231.988 182.387 232.04 182.838C232.355 184.517 233.145 186.343 235.154 186.156C235.947 186.068 236.68 185.688 237.208 185.089C236.915 185.226 236.6 185.313 236.278 185.346Z" fill="black"/>
</g>
<path d="M316.435 257.784C323.375 257.784 329.001 256.701 329.001 255.365C329.001 254.03 323.375 252.947 316.435 252.947C309.495 252.947 303.869 254.03 303.869 255.365C303.869 256.701 309.495 257.784 316.435 257.784Z" fill="#3CFFDC"/>
<path d="M316.225 256.253C317.033 256.253 317.688 255.395 317.688 254.337C317.688 253.279 317.033 252.421 316.225 252.421C315.416 252.421 314.761 253.279 314.761 254.337C314.761 255.395 315.416 256.253 316.225 256.253Z" fill="#3F3D56"/>
<path d="M316.225 253.909C317.033 253.909 317.688 253.051 317.688 251.993C317.688 250.935 317.033 250.077 316.225 250.077C315.416 250.077 314.761 250.935 314.761 251.993C314.761 253.051 315.416 253.909 316.225 253.909Z" fill="#3F3D56"/>
<path d="M316.225 251.569C317.033 251.569 317.688 250.711 317.688 249.653C317.688 248.595 317.033 247.737 316.225 247.737C315.416 247.737 314.761 248.595 314.761 249.653C314.761 250.711 315.416 251.569 316.225 251.569Z" fill="#3F3D56"/>
<path d="M316.225 249.224C317.033 249.224 317.688 248.367 317.688 247.309C317.688 246.25 317.033 245.393 316.225 245.393C315.416 245.393 314.761 246.25 314.761 247.309C314.761 248.367 315.416 249.224 316.225 249.224Z" fill="#3F3D56"/>
<path d="M316.225 246.88C317.033 246.88 317.688 246.022 317.688 244.964C317.688 243.906 317.033 243.048 316.225 243.048C315.416 243.048 314.761 243.906 314.761 244.964C314.761 246.022 315.416 246.88 316.225 246.88Z" fill="#3F3D56"/>
<path d="M316.225 244.54C317.033 244.54 317.688 243.682 317.688 242.624C317.688 241.566 317.033 240.708 316.225 240.708C315.416 240.708 314.761 241.566 314.761 242.624C314.761 243.682 315.416 244.54 316.225 244.54Z" fill="#3F3D56"/>
<path d="M316.225 242.196C317.033 242.196 317.688 241.338 317.688 240.28C317.688 239.222 317.033 238.364 316.225 238.364C315.416 238.364 314.761 239.222 314.761 240.28C314.761 241.338 315.416 242.196 316.225 242.196Z" fill="#3F3D56"/>
<path d="M321.7 224.263C321.9 224.009 322.082 223.741 322.245 223.461L318.4 222.83L322.56 222.858C322.957 221.989 323.174 221.048 323.197 220.093C323.219 219.138 323.048 218.188 322.693 217.301L317.112 220.198L322.257 216.413C321.774 215.581 321.125 214.858 320.351 214.288C319.577 213.718 318.694 213.314 317.757 213.1C316.82 212.886 315.849 212.868 314.905 213.045C313.96 213.223 313.063 213.593 312.267 214.133C311.472 214.673 310.796 215.371 310.282 216.183C309.768 216.996 309.426 217.905 309.278 218.855C309.13 219.806 309.179 220.776 309.422 221.706C309.665 222.637 310.097 223.507 310.691 224.263C310.378 224.659 310.109 225.087 309.889 225.541L314.882 228.138L309.558 226.351C309.186 227.454 309.095 228.633 309.293 229.781C309.491 230.928 309.971 232.009 310.691 232.924C309.879 233.958 309.374 235.2 309.234 236.507C309.094 237.815 309.325 239.135 309.899 240.318C310.474 241.501 311.369 242.498 312.483 243.196C313.597 243.893 314.885 244.263 316.199 244.263C317.513 244.263 318.801 243.893 319.915 243.196C321.029 242.498 321.925 241.501 322.499 240.318C323.074 239.135 323.304 237.815 323.164 236.507C323.024 235.2 322.52 233.958 321.708 232.924C322.68 231.688 323.209 230.161 323.209 228.588C323.209 227.015 322.68 225.488 321.708 224.252L321.7 224.263Z" fill="#3CFFDC"/>
<path opacity="0.1" d="M309.181 228.586C309.18 230.161 309.712 231.69 310.691 232.924C309.879 233.958 309.374 235.2 309.234 236.507C309.094 237.815 309.325 239.135 309.899 240.318C310.474 241.501 311.369 242.498 312.483 243.196C313.597 243.893 314.885 244.263 316.199 244.263C317.513 244.263 318.801 243.893 319.915 243.196C321.029 242.498 321.925 241.501 322.499 240.318C323.074 239.135 323.304 237.815 323.164 236.507C323.024 235.2 322.52 233.958 321.708 232.924C322.638 231.728 309.181 227.799 309.181 228.586Z" fill="black"/>
<path d="M57.76 306C67.7521 306 75.8523 304.441 75.8523 302.519C75.8523 300.596 67.7521 299.037 57.76 299.037C47.7679 299.037 39.6677 300.596 39.6677 302.519C39.6677 304.441 47.7679 306 57.76 306Z" fill="#3CFFDC"/>
<path d="M57.4565 303.8C58.6192 303.8 59.5619 302.564 59.5619 301.039C59.5619 299.514 58.6192 298.278 57.4565 298.278C56.2937 298.278 55.3511 299.514 55.3511 301.039C55.3511 302.564 56.2937 303.8 57.4565 303.8Z" fill="#3F3D56"/>
<path d="M57.4565 300.428C58.6192 300.428 59.5619 299.191 59.5619 297.667C59.5619 296.142 58.6192 294.906 57.4565 294.906C56.2937 294.906 55.3511 296.142 55.3511 297.667C55.3511 299.191 56.2937 300.428 57.4565 300.428Z" fill="#3F3D56"/>
<path d="M57.4565 297.055C58.6192 297.055 59.5619 295.819 59.5619 294.294C59.5619 292.77 58.6192 291.534 57.4565 291.534C56.2937 291.534 55.3511 292.77 55.3511 294.294C55.3511 295.819 56.2937 297.055 57.4565 297.055Z" fill="#3F3D56"/>
<path d="M57.4565 293.683C58.6192 293.683 59.5619 292.447 59.5619 290.922C59.5619 289.397 58.6192 288.161 57.4565 288.161C56.2937 288.161 55.3511 289.397 55.3511 290.922C55.3511 292.447 56.2937 293.683 57.4565 293.683Z" fill="#3F3D56"/>
<path d="M57.4565 290.311C58.6192 290.311 59.5619 289.075 59.5619 287.55C59.5619 286.025 58.6192 284.789 57.4565 284.789C56.2937 284.789 55.3511 286.025 55.3511 287.55C55.3511 289.075 56.2937 290.311 57.4565 290.311Z" fill="#3F3D56"/>
<path d="M57.4565 286.935C58.6192 286.935 59.5619 285.699 59.5619 284.174C59.5619 282.649 58.6192 281.413 57.4565 281.413C56.2937 281.413 55.3511 282.649 55.3511 284.174C55.3511 285.699 56.2937 286.935 57.4565 286.935Z" fill="#3F3D56"/>
<path d="M57.4565 283.562C58.6192 283.562 59.5619 282.326 59.5619 280.801C59.5619 279.277 58.6192 278.041 57.4565 278.041C56.2937 278.041 55.3511 279.277 55.3511 280.801C55.3511 282.326 56.2937 283.562 57.4565 283.562Z" fill="#3F3D56"/>
<path d="M65.341 257.725C65.6259 257.353 65.8859 256.963 66.1193 256.557L60.5854 255.646L66.5707 255.692C67.1444 254.442 67.4572 253.087 67.49 251.711C67.5228 250.335 67.2749 248.967 66.7614 247.69L58.7368 251.872L66.131 246.421C65.4386 245.219 64.506 244.172 63.3914 243.347C62.2769 242.521 61.0043 241.934 59.653 241.623C58.3018 241.312 56.9009 241.282 55.5378 241.537C54.1746 241.791 52.8785 242.324 51.7303 243.102C50.5822 243.88 49.6065 244.886 48.8643 246.058C48.1221 247.23 47.6292 248.542 47.4165 249.914C47.2037 251.285 47.2756 252.685 47.6278 254.027C47.9799 255.369 48.6046 256.624 49.463 257.713C49.0085 258.282 48.617 258.898 48.2955 259.551L55.4834 263.29L47.8207 260.716C47.2837 262.312 47.154 264.017 47.4436 265.675C47.7331 267.334 48.4327 268.894 49.4786 270.213C48.3077 271.703 47.5793 273.492 47.3766 275.376C47.174 277.26 47.5053 279.163 48.3326 280.868C49.16 282.572 50.45 284.009 52.0552 285.015C53.6604 286.02 55.516 286.554 57.4098 286.554C59.3036 286.554 61.1591 286.02 62.7643 285.015C64.3695 284.009 65.6595 282.572 66.4869 280.868C67.3142 279.163 67.6455 277.26 67.4429 275.376C67.2402 273.492 66.5118 271.703 65.341 270.213C66.7404 268.434 67.5013 266.236 67.5013 263.971C67.5013 261.707 66.7404 259.508 65.341 257.729V257.725Z" fill="#3CFFDC"/>
<path opacity="0.1" d="M47.3187 263.983C47.319 266.244 48.0798 268.438 49.4785 270.213C48.3077 271.703 47.5793 273.492 47.3766 275.376C47.174 277.26 47.5053 279.163 48.3326 280.868C49.16 282.572 50.45 284.009 52.0552 285.015C53.6604 286.02 55.5159 286.554 57.4097 286.554C59.3035 286.554 61.1591 286.02 62.7643 285.015C64.3695 284.009 65.6595 282.572 66.4869 280.868C67.3142 279.163 67.6455 277.26 67.4429 275.376C67.2402 273.492 66.5118 271.703 65.3409 270.213C66.6836 268.492 47.3187 262.834 47.3187 263.983Z" fill="black"/>
<defs>
<linearGradient id="paint0_linear_31:4857" x1="234.232" y1="298.421" x2="229.075" y2="170.648" gradientUnits="userSpaceOnUse">
<stop stop-color="#808080" stop-opacity="0.25"/>
<stop offset="0.54" stop-color="#808080" stop-opacity="0.12"/>
<stop offset="1" stop-color="#808080" stop-opacity="0.1"/>
</linearGradient>
</defs>
</svg>
